<svg id="_x33_0" enable-background="new 0 0 64 64" height="512" viewBox="0 0 64 64" width="512" xmlns="http://www.w3.org/2000/svg"><path d="m59.358 52.684 2.288-5.721c.898-2.246 1.354-4.612 1.354-7.031 0-7.782-4.797-14.759-12-17.602v-7.33c0-1.103-.897-2-2-2h-2v-4.838l.387-1.162h5.613c1.103 0 2-.897 2-2v-2c0-1.103-.897-2-2-2h-18c-1.103 0-2 .897-2 2v2c0 1.103.897 2 2 2h5.613l.387 1.162v4.838h-2c-1.103 0-2 .897-2 2v.548c-3.407-1.67-7.176-2.548-11-2.548-13.785 0-25 11.215-25 25s11.215 25 25 25c3.824 0 7.592-.878 11-2.548v.548c0 1.103.897 2 2 2h20c1.103 0 2-.897 2-2v-2c0-1.103-.897-2-2-2v-2.459c0-.639.12-1.264.358-1.857zm-5.571-2.228c-.522 1.305-.787 2.68-.787 4.085v2.459h-6v-2h2c1.103 0 2-.897 2-2v-23.973c3.688 2.356 6 6.476 6 10.905 0 1.652-.311 3.269-.925 4.803zm-23.787 4.051v-1.507c0-.737-.405-1.375-1-1.722v-6.973c.421-.2.824-.428 1.19-.702l6.81 6.811v.529c-2.038 1.734-4.434 2.943-7 3.564zm19.001-23.507h-4.001v2h4.001v2h-4.001v2h4.001v2h-4.001v2h4.001v4h-6.001v-20h6v2h-4v2h4.001zm-.001-8h-8v24h8.001v2h-10.001v-28h10zm-28 15c0-2.416 1.724-4.437 4.006-4.899-1.277 2.721-1.993 5.738-2.003 8.899-1.236-.929-2.003-2.4-2.003-4zm4 4.068c0-7.878 4.77-14.825 12-17.706v2.183c-6.093 2.778-10 8.792-10 15.523v8.932h-2zm12-5.068h-4.079c-.172-1.202-.647-2.332-1.396-3.292 1.362-2.043 3.231-3.745 5.475-4.936zm-6.588-1.307c.37.707.588 1.487.588 2.307 0 1.598-.765 3.068-1.997 3.996.01-2.231.508-4.37 1.409-6.303zm2.509 3.307h4.079v8.586l-5.403-5.403c.69-.925 1.155-2.013 1.324-3.183zm-5.921-9.305v-8.656c2.665.154 5.216.921 7.507 2.252-3.021 1.532-5.577 3.741-7.507 6.404zm-2 1.385c-1.183.17-2.269.636-3.185 1.322l-7.09-7.09c2.77-2.464 6.341-4.03 10.275-4.261zm-11.689-4.354 7.09 7.09c-.685.915-1.151 2.001-1.321 3.184h-10.029c.23-3.933 1.796-7.504 4.26-10.274zm5.768 12.274c.169 1.17.634 2.258 1.324 3.182l-7.092 7.092c-2.464-2.77-4.03-6.341-4.26-10.274zm2.731 4.603c.366.274.769.502 1.19.702v6.973c-.595.347-1 .985-1 1.722v1.505c-2.746-.666-5.228-1.996-7.275-3.817zm2.19 9.397h4v1.868c-.661.078-1.327.132-2 .132-.678 0-1.343-.051-2-.128zm15-2h10.001v2h-10.001zm6 4v2h-2v-2zm-2.279-48-1.333-4h5.225l-1.333 4zm10.279-2h-4.946l.667-2h4.279zm-18 0v-2h4.279l.667 2zm8 4h2v4h-2zm6 6v4h-10v-4zm-11.753 43.058c-3.421 1.921-7.3 2.942-11.247 2.942-12.682 0-23-10.317-23-23s10.318-23 23-23c3.853 0 7.64.976 11 2.809v4.428c-.09.032-.18.064-.269.098-3.168-2.175-6.862-3.335-10.731-3.335-10.477 0-19 8.523-19 19s8.523 19 19 19c3.991 0 7.842-1.258 11.053-3.558.202.89.996 1.558 1.947 1.558h2v2h-2c-.761 0-1.415.432-1.753 1.058zm21.754 2.942h-20.001v-2h20zm-4.001-4v-2h2v2zm2.5-5.059c-.138.346-.241.7-.322 1.059h-2.04c.107-.614.271-1.217.505-1.802l2.288-5.722c.71-1.771 1.069-3.636 1.069-5.544 0-5.531-3.123-10.643-8-13.212v-2.232c6.035 2.715 10 8.75 10 15.444 0 2.163-.408 4.279-1.211 6.289z"/></svg>