<svg id="_x33_0" enable-background="new 0 0 64 64" height="512" viewBox="0 0 64 64" width="512" xmlns="http://www.w3.org/2000/svg"><g><path d="m22 29c-1.654 0-3 1.346-3 3v15c0 1.103.897 2 2 2h2c1.103 0 2-.897 2-2v-15c0-1.654-1.346-3-3-3zm-1 18v-10.184c.314.112.648.184 1 .184s.686-.072 1-.184v10.184zm1-12c-.551 0-1-.448-1-1v-2c0-.552.449-1 1-1s1 .448 1 1v2c0 .552-.449 1-1 1z"/><path d="m49 41.08v-16.08c0-.757-.428-1.41-1.051-1.749l-.089-1.248c-.031-.437-.085-.868-.156-1.293l5.296-5.296c.645-.646 1-1.503 1-2.414s-.355-1.769-1-2.414l-2.585-2.586c-1.289-1.289-3.541-1.289-4.829 0l-3.607 3.607c-.317-.226-.643-.44-.979-.639v-2.968c0-3.859-3.14-7-7-7h-4c-3.86 0-7 3.141-7 7v2.968c-.336.2-.661.413-.979.639l-3.606-3.607c-1.289-1.289-3.541-1.289-4.829 0l-2.586 2.586c-.645.646-1 1.503-1 2.414s.355 1.769 1 2.414l3.586 3.586h-.586c-1.654 0-3 1.346-3 3v6c0 1.654 1.346 3 3 3h1v10.08c-3.387.488-6 3.401-6 6.92v10c0 2.757 2.243 5 5 5h36c2.757 0 5-2.243 5-5v-10c0-3.519-2.613-6.432-6-6.92zm4 6.92v1h-4v-5.899c2.279.465 4 2.485 4 4.899zm-22.896-37h3.791c6.266 0 11.523 4.896 11.969 11.146l.062.854h-1.995l-.051-.712c-.373-5.208-4.757-9.288-9.983-9.288h-3.795c-5.225 0-9.61 4.08-9.983 9.288l-.05.712h-1.995l.061-.854c.447-6.25 5.704-11.146 11.969-11.146zm1.896-7.947c1.051.33 1.908 1.032 2.431 1.947h-4.863c.524-.915 1.381-1.617 2.432-1.947zm-3 4.07c0-.042.009-.081.01-.123h5.979c.002.042.011.081.011.123v1.931c-.366-.029-.732-.054-1.104-.054h-3.791c-.373 0-.739.025-1.105.054zm-6.926 15.877.041-.569c.298-4.167 3.806-7.431 7.988-7.431h3.795c4.181 0 7.69 3.264 7.988 7.431l.04.569zm-5.074 30v-28h14v28zm16-28h14l.001 28h-14.001zm18.586-11-4.463 4.463c-.264-.764-.593-1.496-.979-2.193l4.856-4.856.585.586c.268.268.415.622.415 1s-.147.732-.414 1zm-4.586-4.586c.533-.535 1.465-.535 2 0l.586.586-4.553 4.553c-.455-.597-.956-1.156-1.498-1.673zm-8-1.414v1.976c-.645-.255-1.315-.453-2-.611v-2.242c0-1.416-.475-2.737-1.285-3.801 1.911.703 3.285 2.526 3.285 4.678zm-14 0c0-2.152 1.374-3.975 3.285-4.678-.81 1.065-1.285 2.385-1.285 3.801v2.242c-.685.157-1.355.356-2 .611zm-8 1.414 3.466 3.466c-.542.517-1.043 1.076-1.498 1.673l-4.554-4.553.586-.586c.534-.535 1.466-.535 2 0zm-5 3.586c0-.378.147-.732.414-1l.586-.586 4.856 4.856c-.386.697-.715 1.429-.979 2.193l-4.462-4.463c-.268-.268-.415-.622-.415-1zm2 16c-.551 0-1-.448-1-1v-6c0-.552.449-1 1-1h2.261c-.048.332-.097.664-.121 1.003l-.089 1.248c-.623.339-1.051.992-1.051 1.749v4zm1 14.101v5.899h-4v-1c0-2.414 1.721-4.434 4-4.899zm-4 14.899v-7h4v2c0 .773.445 1.437 1.089 1.77l.671 5.37c.038.305.13.589.245.86h-3.005c-1.654 0-3-1.346-3-3zm9 3c-.637 0-1.177-.477-1.256-1.108l-.611-4.892h27.735l-.611 4.892c-.08.631-.62 1.108-1.257 1.108zm30 0h-3.004c.115-.271.206-.556.245-.86l.671-5.37c.643-.333 1.088-.997 1.088-1.77v-2h4v7c0 1.654-1.346 3-3 3z"/><path d="m42.382 43h-2.764c-1.444 0-2.618 1.175-2.618 2.618 0 .404.096.81.276 1.171l1.382 2.764c.446.892 1.344 1.447 2.342 1.447s1.896-.555 2.342-1.447l1.382-2.764c.18-.361.276-.767.276-1.171 0-1.443-1.174-2.618-2.618-2.618zm.553 2.895-1.382 2.764c-.211.422-.895.422-1.105 0l-1.382-2.764c-.044-.085-.066-.181-.066-.277 0-.341.277-.618.618-.618h2.764c.341 0 .618.277.618.618 0 .096-.022.192-.065.277z"/></g></svg>