<svg id="_x33_0" enable-background="new 0 0 64 64" height="512" viewBox="0 0 64 64" width="512" xmlns="http://www.w3.org/2000/svg"><g><path d="m33 21h2v2h-2z"/><path d="m37 21h2v2h-2z"/><path d="m61 11h-45.185l-.229-2.017c-.517-4.55-4.362-7.983-8.943-7.983h-2.643c-1.654 0-3 1.346-3 3s1.346 3 3 3h2.644c1.527 0 2.808 1.144 2.98 2.661l3.681 32.394c.361 3.18 1.936 6.133 4.343 8.247-.411.812-.648 1.727-.648 2.698v8c0 1.103.897 2 2 2h2c1.103 0 2-.897 2-2v-8c1.302 0 2.402-.839 2.816-2h22.184c.725 0 1.432-.075 2.125-.189.357 1.259 1.503 2.189 2.875 2.189v8c0 1.103.897 2 2 2h2c1.103 0 2-.897 2-2v-8c0-2.048-1.056-3.912-2.702-5.002 2.87-2.387 4.702-5.982 4.702-9.998v-19c1.103 0 2-.897 2-2v-4c0-1.103-.897-2-2-2zm-2.426 30h-9.574v-10h10v7c0 1.041-.155 2.045-.426 3zm-11.574 0h-10v-10h10zm0 8h-10v-6h10zm-24-8h-3.776l-1.136-10h4.912zm2-10h10v10h-10zm-2 12v3.754c-1.545-.789-2.726-2.141-3.329-3.754zm2 4.78v-4.78h10v6h-9.184c-.169-.474-.45-.889-.816-1.22zm12-18.78v-2h6v-8h4v10zm4-4h-10v-6h10zm-6 2v2h-10v-10h4v8zm-12 2h-5.139l-1.136-10h6.275zm-7.708 12.828-3.681-32.393c-.287-2.529-2.422-4.435-4.967-4.435h-2.644c-.551 0-1-.448-1-1s.449-1 1-1h2.643c3.563 0 6.553 2.67 6.956 6.21l3.681 32.393c.268 2.364 1.49 4.469 3.285 5.919-.644.287-1.228.684-1.729 1.168-1.965-1.78-3.244-4.23-3.544-6.862zm7.708 9.172c-1.103 0-2 .897-2 2l.001 8h-2.001v-8c0-2.206 1.794-4 4-4 .551 0 1 .448 1 1s-.449 1-1 1zm34 2v8h-2v-8c0-1.103-.897-2-2-2-.431 0-.791-.278-.931-.661.83-.274 1.621-.631 2.368-1.059 1.522.589 2.563 2.061 2.563 3.72zm-8-4.051v-5.949h8.786c-1.68 3.275-4.948 5.601-8.786 5.949zm10-19.949h-10v-10h10zm2-12h-18-14-12.503l-.455-4h44.958z"/></g></svg>