<svg id="_x33_0" enable-background="new 0 0 64 64" height="512" viewBox="0 0 64 64" width="512" xmlns="http://www.w3.org/2000/svg"><g><path d="m24 37c-1.654 0-3 1.346-3 3s1.346 3 3 3 3-1.346 3-3-1.346-3-3-3zm0 4c-.551 0-1-.449-1-1s.449-1 1-1 1 .449 1 1-.449 1-1 1z"/><path d="m24 33c-3.86 0-7 3.14-7 7s3.14 7 7 7 7-3.14 7-7-3.14-7-7-7zm0 12c-2.757 0-5-2.243-5-5s2.243-5 5-5 5 2.243 5 5-2.243 5-5 5z"/><path d="m24 23v-2c-10.477 0-19 8.523-19 19h2c0-9.374 7.626-17 17-17z"/><path d="m7.665 44.724-1.922.553c1.237 4.302 3.972 8.05 7.7 10.554l1.115-1.66c-3.338-2.242-5.786-5.597-6.893-9.447z"/><path d="m31 5.064v-1.064c0-1.654-1.346-3-3-3h-8c-1.654 0-3 1.346-3 3v1.184c-1.161.414-2 1.514-2 2.816v2c0 1.654 1.346 3 3 3h2.153l.703 4.22c-11.199 1.539-19.856 11.165-19.856 22.78 0 12.682 10.318 23 23 23 9.756 0 18.108-6.109 21.444-14.701 2.31 1.519 4.882 2.638 7.566 3.302-1.294 1.424-2.01 3.247-2.01 5.184 0 2.99 2.019 5.554 4.8 6.098.396.078.795.116 1.19.116 1.392 0 2.74-.474 3.822-1.365 1.391-1.146 2.188-2.835 2.188-4.634v-18c0-18.076-14.18-32.897-32-33.936zm-11-2.064h8c.551 0 1 .449 1 1v1h-10v-1c0-.551.449-1 1-1zm2.18 10h3.639l-.671 4.029c-.38-.019-.763-.029-1.148-.029s-.768.01-1.148.029zm31.212 17h-3.392v-4h1.502c.737 1.271 1.374 2.606 1.89 4zm-5.392-6v8h6.035c.184.657.345 1.323.478 2h-7.513c-.551 0-1-.449-1-1v-10c0-.551.449-1 1-1h1.647c.555.64 1.078 1.307 1.57 2zm-4-1v5.664c-3.466-6.091-9.63-10.451-16.856-11.444l.703-4.22h1.153c6.857 0 13.098 2.673 17.749 7.025-1.536.131-2.749 1.407-2.749 2.975zm-20 38c-11.58 0-21-9.42-21-21s9.42-21 21-21 21 9.42 21 21-9.42 21-21 21zm22.436-15.956c.696.588 1.584.956 2.564.956 2.206 0 4-1.794 4-4s-1.794-4-4-4c-.751 0-1.447.221-2.048.583-.054-.888-.161-1.761-.314-2.619.12.014.238.036.362.036h7.822c.113.985.178 1.985.178 3v8.515c0 .836-.225 1.629-.609 2.346-2.962-.603-5.798-1.814-8.283-3.534.121-.423.231-.851.328-1.283zm2.564-5.044c1.103 0 2 .897 2 2s-.897 2-2 2-2-.897-2-2 .897-2 2-2zm12 17c0 1.2-.532 2.326-1.459 3.089-.94.774-2.133 1.069-3.357.831-1.845-.36-3.184-2.099-3.184-4.135 0-1.529.595-2.966 1.676-4.047l.273-.273c1.322-1.322 2.05-3.08 2.05-4.95v-8.515c0-15.439-12.561-28-28-28h-10.999c-.551 0-1-.449-1-1v-2c0-.551.449-1 1-1h11c17.645 0 32 14.355 32 32z"/></g></svg>