<svg id="_x33_0" enable-background="new 0 0 64 64" height="512" viewBox="0 0 64 64" width="512" xmlns="http://www.w3.org/2000/svg"><path d="m52 41c-2.673 0-5.125.961-7.034 2.552l-2.322-2.322 1.077-3.23h1.279c1.654 0 3-1.346 3-3s-1.346-3-3-3h-1.094c.058-.392.094-.791.094-1.2 0-1.364-.378-2.7-1.094-3.861l-2.631-4.276c-2.699-4.386-7.42-7.227-12.521-7.613.814-1.556 1.246-3.278 1.246-5.05v-.162l-.856-2.568 1.176-1.176-.52-.694c-2.067-2.755-5.356-4.4-8.8-4.4-4.962 0-9 4.038-9 9v1h2v4h2.219l.252 1.007c.44 1.763 2.016 2.993 3.833 2.993.611 0 1.222-.145 1.768-.418l.11-.055c.081-.041.167-.067.254-.083-.273.658-.436 1.37-.436 2.118v5.438h-8c-1.474 0-2.75.81-3.444 2h-3.556c-1.654 0-3 1.346-3 3s1.346 3 3 3h3v7.421c-4.68 1.325-8 5.648-8 10.579 0 6.065 4.935 11 11 11s11-4.935 11-11c0-4.934-3.319-9.255-8-10.58v-.943l12.981 5.193 1.657 3.729-.763.254c-1.121.375-1.875 1.421-1.875 2.603 0 1.256.849 2.318 2.002 2.642-.001.034-.002.068-.002.102v2c0 1.103.897 2 2 2h6c1.103 0 2-.897 2-2v-2c0-.179-.031-.35-.076-.515.632-.351 1.155-.861 1.519-1.485h.607c.508 5.598 5.222 10 10.95 10 6.065 0 11-4.935 11-11s-4.935-11-11-11zm-2.816 12c.035.098.072.193.116.285l-1.468 1.468c-.348-.524-.602-1.116-.732-1.753zm2.816 0c-.551 0-1-.449-1-1s.449-1 1-1 1 .449 1 1-.449 1-1 1zm-1.285 1.699c.093.044.188.081.285.116v2.083c-.637-.13-1.229-.384-1.753-.732zm2.285.117c.098-.035.193-.072.285-.116l1.468 1.468c-.524.348-1.116.602-1.753.732zm3.167-.063-1.468-1.468c.044-.093.082-.188.116-.285h2.083c-.129.637-.383 1.229-.731 1.753zm-1.351-3.753c-.035-.098-.072-.193-.116-.285l1.468-1.468c.348.524.602 1.116.732 1.753zm-1.531-1.699c-.093-.044-.188-.082-.285-.116v-2.083c.637.13 1.229.384 1.753.732zm-2.285-.117c-.098.035-.193.072-.285.116l-1.468-1.468c.524-.348 1.116-.602 1.753-.732zm-1.699 1.531c-.044.093-.082.188-.116.285h-2.083c.13-.637.384-1.229.732-1.753zm-4.221.285h-2.021c.193-1.733.88-3.316 1.916-4.611l1.427 1.427c-.686.915-1.152 2.001-1.322 3.184zm-6.568-3.699c-.467-.191-.977-.301-1.512-.301-.097 0-.191.018-.287.025l3.008-9.025h1.892zm-6.862 1.699-.889-2h3.72l.727 2zm-16.65-15h10c2.206 0 4-1.794 4-4v-2.586l2.638 2.638-3.743 4.367c-.416.485-.762 1.018-1.046 1.581h-11.849zm13 5.542c0-.681.123-1.35.35-1.982l3.806 3.045 1.598 4.395h-3.882l-1.366-3.074c-.336-.755-.506-1.557-.506-2.384zm6.244.954 3.044-1.522-1.72 5.161zm10.756-6.496c.551 0 1 .449 1 1s-.449 1-1 1h-2.975c.535-.595.983-1.263 1.308-2zm-3-3.125c0 2.163-1.198 4.106-3.127 5.07l-5.748 2.874-3.77-3.016c.022-.026.037-.057.059-.082l4.246-4.954 6.683-4.177.86 1.397c.521.847.797 1.82.797 2.888zm-3.429-7.165.724 1.176-6.15 3.844-4.145-4.144v-2.586h-2v2h-4v-3.438c0-1.637 1.109-3.058 2.697-3.455.283-.071.574-.107.865-.107 4.86 0 9.461 2.571 12.009 6.71zm-12.838-9.16-.733-.55c-.981-.736-1.646-1.815-1.891-3h3.835c-.141 1.257-.561 2.458-1.211 3.55zm-8.194-7.235.843 1.685h-2.876c.483-.766 1.196-1.351 2.033-1.685zm3.079 1.685-1-2h1.146c.381 0 .724.212.894.553l.724 1.447zm-.618-6c2.529 0 4.956 1.084 6.65 2.936l-.794.794.757 2.27h-1.995l-1.171-2.342c-.511-1.023-1.54-1.658-2.683-1.658h-1.641c-2.616 0-4.904 1.615-5.835 4h-.217c.487-3.388 3.408-6 6.929-6zm.286 13.739-.111.056c-.268.134-.57.205-.871.205-.897 0-1.675-.607-1.892-1.478l-.631-2.522h-1.781v-2h6.081c.266 1.816 1.235 3.487 2.718 4.6l.119.089c-.468.254-.894.563-1.265.932-.759-.286-1.615-.258-2.367.118zm-7.286 11.261h10v-2h4v4c0 1.103-.897 2-2 2h-12c-1.103 0-2-.897-2-2s.897-2 2-2zm-8 3c0-.551.449-1 1-1h3c0 .732.212 1.409.556 2h-3.556c-.551 0-1-.449-1-1zm8 3v15.184c-.314-.112-.648-.184-1-.184s-.686.072-1 .184v-15.184zm-1 19c-.551 0-1-.449-1-1s.449-1 1-1 1 .449 1 1-.449 1-1 1zm-3-2h-1.886c.246-1.2.916-2.268 1.886-2.998zm.184 2c.035.098.072.193.116.285l-1.468 1.468c-.347-.524-.601-1.116-.731-1.753zm1.531 1.699c.093.044.188.081.285.116v2.083c-.637-.13-1.229-.384-1.753-.732zm2.285.117c.098-.035.193-.072.285-.116l1.468 1.468c-.524.348-1.116.602-1.753.732zm3.167-.063-1.468-1.468c.044-.093.082-.188.116-.285h2.083c-.129.637-.383 1.229-.731 1.753zm-1.167-3.753v-2.998c.97.73 1.64 1.798 1.886 2.998zm6 1c0 4.962-4.038 9-9 9s-9-4.038-9-9c0-3.84 2.463-7.226 6-8.479v2.174c-2.413 1.15-4 3.59-4 6.305 0 3.86 3.14 7 7 7s7-3.14 7-7c0-2.715-1.587-5.155-4-6.305v-2.174c3.538 1.253 6 4.637 6 8.479zm-6-13.677v-.323h11.158c-.101.505-.158 1.021-.158 1.542 0 1.109.229 2.185.679 3.197l.138.311zm14 13.933c0-.32.204-.604.508-.705l1.654-.551h4.758c.046.146.08.295.08.449 0 .855-.696 1.551-1.551 1.551h-4.706c-.41 0-.743-.333-.743-.744zm8 4.744h-6l-.001-2h.001 6zm.701-4.133c.19-.435.299-.913.299-1.418 0-.417-.072-.825-.214-1.213l-.437-1.201c.937.167 1.651.982 1.651 1.965 0 .856-.542 1.581-1.299 1.867zm2.484-4.26 1.752-5.256 1.615 1.615c-1.391 1.667-2.294 3.751-2.501 6.034h-.051c0-.901-.31-1.724-.815-2.393zm11.815 12.393c-4.624 0-8.441-3.507-8.941-8h2.021c.488 3.387 3.401 6 6.92 6 3.86 0 7-3.14 7-7s-3.14-7-7-7c-1.57 0-3.015.526-4.184 1.402l-1.427-1.427c1.54-1.233 3.489-1.975 5.611-1.975 4.962 0 9 4.038 9 9s-4.038 9-9 9z"/></svg>