<svg id="_x33_0" enable-background="new 0 0 64 64" height="512" viewBox="0 0 64 64" width="512" xmlns="http://www.w3.org/2000/svg"><g><path d="m23.109 10.017 2.009-4.017-2.5-5h-15.236l-2.5 5 1.919 3.838c-1.151 1.394-1.801 3.175-1.801 4.99v45.172c0 1.654 1.346 3 3 3h14c1.654 0 3-1.346 3-3v-31.22l.214-.054c2.229-.556 3.786-2.549 3.786-4.848 0-.718-.159-1.442-.46-2.094zm-13.767 7.772c.549.275.981.701 1.268 1.211h-3.61v-2.382zm1.658 25.211h-4v-2h4zm0-4h-4v-2h4zm0-4h-4v-2h4zm0-4h-4v-2h4zm0-4h-4v-2h4zm0-4h-4v-2h4zm-4 22h3.61c-.287.51-.72.936-1.268 1.211l-2.342 1.171zm0 4.618 3.236-1.618c1.705-.854 2.764-2.566 2.764-4.472v-23.056c0-1.905-1.059-3.618-2.764-4.472l-3.214-1.607c.095-1.249.598-2.448 1.42-3.393h12.918l1.435 3.108-3.275 1.872c-1.554.888-2.52 2.551-2.52 4.341v23.207c0 1.905 1.059 3.618 2.764 4.472l3.236 1.618v3.382h-16zm1.618-40.618-1-2h14.764l-1 2zm15.018 6.931 1.416 3.069h-5.723c.261-.526.657-.983 1.182-1.283zm-.636 27.069h-4v-2h4zm0-4h-4v-2h4zm0-4h-4v-2h4zm-2.342 11.211c-.549-.275-.981-.701-1.268-1.211h3.61v2.382zm2.342-15.211h-4v-2h4zm-4-10h6.975l.749 1.622c.056.121.088.251.127.378h-7.851zm2.382-18 1 2h-14.764l1-2zm.618 58h-14c-.552 0-1-.448-1-1v-5h16v5c0 .552-.448 1-1 1zm2.729-34.213-.851.213h-4.878v-2h7.774c-.351.869-1.092 1.549-2.045 1.787z"/><path d="m59.118 6-2.5-5h-15.236l-2.5 5 2.009 4.017-5.431 11.767c-.301.652-.46 1.376-.46 2.094 0 2.299 1.557 4.292 3.785 4.849l.215.053v31.22c0 1.654 1.346 3 3 3h14c1.654 0 3-1.346 3-3v-45.172c0-1.815-.65-3.596-1.801-4.991zm-6.118 15h4v2h-4zm0 4h4v2h-4zm0 4h4v2h-4zm0 4h4v2h-4zm0 4h4v2h-4zm0 4h4v2h-4zm4 4v2.382l-2.342-1.171c-.549-.275-.981-.701-1.268-1.211zm0-26h-3.61c.287-.51.72-.936 1.268-1.211l2.342-1.171zm-3.236-3c-1.705.854-2.764 2.566-2.764 4.472v23.057c0 1.905 1.059 3.618 2.764 4.472l3.236 1.617v3.382h-16v-3.382l3.236-1.618c1.705-.854 2.764-2.566 2.764-4.472v-23.207c0-1.79-.966-3.453-2.52-4.341l-3.275-1.872 1.435-3.108h12.918c.822.945 1.325 2.144 1.42 3.393zm-12.764 13h4v2h-4zm0 4h4v2h-4zm0 4h4v2h-4zm0 4h4v2h-4zm0 4h3.61c-.287.51-.72.936-1.268 1.211l-2.342 1.171zm3.671-26h-5.723l1.416-3.069 3.124 1.786c.526.3.922.757 1.183 1.283zm-2.053-10-1-2h14.764l-1 2zm12.764-6 1 2h-14.764l1-2zm-17.357 18h6.975v2h-7.851c.039-.127.071-.257.127-.378zm-.799 4h7.774v2h-4.878l-.851-.213c-.954-.238-1.694-.918-2.045-1.787zm18.774 36h-14c-.552 0-1-.448-1-1v-5h16v5c0 .552-.448 1-1 1z"/></g></svg>