<svg id="_x33_0" enable-background="new 0 0 64 64" height="512" viewBox="0 0 64 64" width="512" xmlns="http://www.w3.org/2000/svg"><g><path d="m63 35v-10.394c0-3.209-1.15-6.318-3.239-8.755-2.092-2.44-4.992-4.053-8.168-4.542l-7.593-1.167v-5.512c0-2.002-1.628-3.63-3.63-3.63h-16.74c-2.002 0-3.63 1.628-3.63 3.63v5.512l-7.593 1.168c-3.176.489-6.077 2.102-8.168 4.542-2.089 2.436-3.239 5.545-3.239 8.754v10.394h10.704c.19 2.226.296 4.46.296 6.698 0 3.476-.233 6.983-.692 10.426l-1.45 10.876h44.284l-1.45-10.876c-.459-3.442-.692-6.95-.692-10.426 0-2.238.106-4.472.296-6.698zm-10.509-2c.074-.667.151-1.335.242-2h8.267v2zm-38.55 5.73 17.059-5.97v3.881l-17.015 5.955c.003-.3.015-.599.015-.898 0-.99-.022-1.979-.059-2.968zm36.97-9.058-17.911 6.268v-3.88l18.633-6.522c-.28 1.371-.514 2.751-.722 4.134zm-29.911 12.588 10-3.5v12.24h-10zm12-4.2 17.606-6.162c-.396 3.248-.606 6.521-.606 9.8 0 3.098.191 6.219.548 9.302h-17.548zm25.243-20.907c1.778 2.075 2.757 4.722 2.757 7.453v4.394h-7.966c.442-2.712 1.021-5.402 1.745-8.058l.185-.679-1.93-.525-.185.679c-.256.938-.491 1.881-.713 2.826l-19.136 6.697v-8.94c1.103 0 2-.897 2-2v-1.465l8.232-5.488 8.057 1.239c2.704.417 5.173 1.79 6.954 3.867zm-36.243-9.232 7.017 4.912c-.005.056-.017.11-.017.167v2.132l-7-4.667zm8.16 3.27-5.987-4.191h15.654l-5.987 4.191c-.256-.119-.539-.191-.84-.191h-2c-.301 0-.584.072-.84.191zm4.823 1.642 7.017-4.913v2.544l-7 4.667v-2.131c0-.057-.012-.111-.017-.167zm-3.983 6.167v-6h2l.001 6zm-7.37-16h16.74c.899 0 1.63.731 1.63 1.63 0 .126-.017.25-.045.37h-19.91c-.028-.12-.045-.244-.045-.37 0-.899.731-1.63 1.63-1.63zm-17.873 14.153c1.781-2.078 4.25-3.451 6.954-3.867l8.057-1.239 8.232 5.488v1.465c0 1.103.897 2 2 2v9.64l-17.163 6.007c-.343-5.483-1.24-10.923-2.687-16.23l-.185-.679-1.93.525.185.68c.724 2.656 1.303 5.346 1.745 8.058h-7.965v-4.394c0-2.732.979-5.379 2.757-7.454zm-2.757 15.847v-2h8.268c.091.665.168 1.333.242 2zm10.291 19.388c.337-2.53.55-5.094.647-7.656l5.062-1.772v10.04h12v8h-18.858zm19.709 8.612v-8h17.791l1.067 8z"/><path d="m20 28c2.757 0 5-2.243 5-5s-2.243-5-5-5-5 2.243-5 5 2.243 5 5 5zm0-8c1.654 0 3 1.346 3 3s-1.346 3-3 3-3-1.346-3-3 1.346-3 3-3z"/><circle cx="20" cy="23" r="1"/></g></svg>