<svg id="_x33_0" enable-background="new 0 0 64 64" height="512" viewBox="0 0 64 64" width="512" xmlns="http://www.w3.org/2000/svg"><path d="m63 10c0-3.519-2.614-6.432-6-6.92v-.08c0-1.103-.897-2-2-2h-14c-1.103 0-2 .897-2 2v2c0 1.103.897 2 2 2h6v12.03c-.967.068-1.919.324-2.777.776l-16.263 8.559-1.756-9.365h3.796c1.654 0 3-1.346 3-3v-2c0-1.654-1.346-3-3-3h-14c-1.654 0-3 1.346-3 3v2c0 1.654 1.346 3 3 3h4.171l2.64 14.083c-1.013.172-1.949.641-2.69 1.382l-2.937 2.937c-1.037-.262-2.104-.402-3.184-.402-7.168 0-13 5.832-13 13s5.832 13 13 13c6.087 0 11.268-4.159 12.642-10h2.358c.314 0 .619-.031.92-.078l.693 2.078h-1.613c-1.103 0-2 .897-2 2v2c0 1.103.897 2 2 2h6c1.103 0 2-.897 2-2v-2c0-1.103-.897-2-2-2h-2.28l-.902-2.706c1.891-1.011 3.182-3.004 3.182-5.294 0-.749-.144-1.463-.396-2.125l12.396-11.51v3.994c-5.841 1.372-10 6.553-10 12.641 0 7.168 5.832 13 13 13s13-5.832 13-13c0-4.531-2.308-8.555-5.893-10.888l.285-.325c3.616-4.135 5.608-9.436 5.608-14.929 0-3.051-.622-6.066-1.808-8.86 1.156-1.279 1.808-2.951 1.808-4.692zm-27.999 49h-6.001v-2h6zm18.36-39.658c-.117-.06-.236-.113-.361-.157v-12.185h1.425l3.759 6.444c.208.357.401.721.587 1.088zm-12.361-16.342h14l.001 2h-14.001zm10 4v12h-2v-12zm-22 34v-2c1.103 0 2-.897 2-2v-2c0-.444-.151-.851-.397-1.184l11.55-5.775c.055-.027.115-.041.176-.041h.278c.217 0 .393.176.393.393 0 .109-.046.213-.125.287l-13.317 12.348c-.184-.017-.37-.028-.558-.028zm-10.369 3.783c.705.626 1.286 1.372 1.688 2.217h-2.904c-.229 0-.415-.186-.415-.414 0-.109.044-.216.121-.293zm3.856 2.217c-.494-1.397-1.333-2.645-2.429-3.644l2.942-2.942v6.586zm2.513-8h2v2.35c-.746.265-1.422.672-2 1.19zm-10-23v-2c0-.551.448-1 1-1h14c.552 0 1 .449 1 1v2c0 .551-.448 1-1 1h-14c-.552 0-1-.449-1-1zm9.171 3 2.625 14h-1.966l-2.625-14zm-2.636 16.878c.567-.566 1.32-.878 2.122-.878h5.343v2h-4.586c-.526 0-1.042.213-1.414.586l-7.294 7.293c-.448.45-.706 1.072-.706 1.707 0 1.331 1.083 2.414 2.414 2.414h5.936c.265.746.672 1.422 1.19 2h-6.883c-2.568 0-4.657-2.089-4.657-4.657 0-1.245.484-2.414 1.364-3.293zm-11.72 8.524c.565-.424 1.195-.763 1.874-1.002-.343.695-.566 1.445-.649 2.227zm-1.414 1.414 3.129 3.129c.008.019.018.036.027.055h-4.477c.17-1.183.636-2.269 1.321-3.184zm3.185 5.184-3.184 3.184c-.686-.915-1.152-2.001-1.322-3.184zm1.414 1.414v4.506c-1.183-.17-2.269-.636-3.185-1.322zm2 .029c.019.008.037.019.057.027l3.131 3.131c-.922.688-2.012 1.146-3.188 1.315zm4.594 1.736-1.179-1.179h1.901c-.201.422-.447.812-.722 1.179zm-5.594 6.821c-6.065 0-11-4.935-11-11s4.935-11 11-11c.498 0 .993.037 1.482.103l-1.919 1.919c-4.759.23-8.563 4.163-8.563 8.978 0 4.962 4.037 9 9 9 3.845 0 7.23-2.431 8.487-6h2.093c-1.318 4.699-5.59 8-10.58 8zm17.171-10.649-1.222-3.667-1.896.633 1.219 3.656c-.093.006-.179.027-.272.027-2.206 0-4-1.794-4-4s1.794-4 4-4 4 1.794 4 4c0 1.405-.731 2.637-1.829 3.351zm2.391-7.238c-.495-.58-1.097-1.064-1.777-1.422l12.449-11.543c.487-.452.766-1.091.766-1.755 0-1.32-1.073-2.393-2.393-2.393h-.278c-.37 0-.74.087-1.07.252l-12.521 6.26-.392-2.091 16.808-8.846c.715-.376 1.52-.575 2.328-.575h4.518c.552 0 1 .449 1 1v8c0 .551-.448 1-1 1h-5.393zm17.438-10.113v14.184c-.314-.112-.648-.184-1-.184s-.686.072-1 .184v-14.184zm-1 18c-.552 0-1-.449-1-1s.448-1 1-1 1 .449 1 1-.448 1-1 1zm-3-5.414-1.18-1.18c.368-.275.758-.522 1.18-.723zm-2.602.227 2.602 2.601v.586h-3.916c.169-1.175.626-2.266 1.314-3.187zm2.786 5.187c.035.098.072.193.116.285l-2.899 2.899c-.685-.915-1.151-2.001-1.321-3.184zm1.531 1.699c.093.044.188.082.285.116v4.104c-1.183-.17-2.269-.636-3.185-1.322zm2.285.117c.098-.035.193-.072.285-.116l2.899 2.899c-.915.685-2.001 1.151-3.184 1.321zm4.599 1.368-2.899-2.899c.044-.093.082-.188.116-.285h4.104c-.17 1.183-.636 2.269-1.321 3.184zm-2.599-5.184v-.586l2.602-2.601c.688.922 1.145 2.012 1.315 3.187zm0-3.414v-1.902c.422.2.812.447 1.18.722zm8 4.414c0 6.065-4.935 11-11 11s-11-4.935-11-11c0-4.99 3.302-9.262 8-10.58v2.093c-3.569 1.258-6 4.642-6 8.487 0 4.962 4.037 9 9 9s9-4.038 9-9c0-3.845-2.431-7.229-6-8.487v-2.093c4.698 1.318 8 5.59 8 10.58zm-5.114-12.531-.578.661c-.733-.326-1.505-.583-2.308-.772v-4.543c1.161-.414 2-1.514 2-2.816v-8c0-.431-.095-.839-.259-1.209l4.876-4.334c.903 2.356 1.383 4.864 1.383 7.402 0 5.008-1.816 9.842-5.114 13.611zm4.026-25.033-3.508-6.015c.345-.34.56-.806.586-1.321 2.284.461 4.01 2.482 4.01 4.9v.306c0 .961-.283 1.889-.789 2.684-.101-.184-.193-.373-.299-.554z"/></svg>