<svg id="_x33_0" enable-background="new 0 0 64 64" height="512" viewBox="0 0 64 64" width="512" xmlns="http://www.w3.org/2000/svg"><g><path d="m15 55h10v-6h-10zm2-4h6v2h-6z"/><path d="m27 55h6v-6h-6zm2-4h2v2h-2z"/><path d="m7 55h6v-6h-6zm2-4h2v2h-2z"/><path d="m17 11h-6v6h6zm-2 4h-2v-2h2z"/><path d="m25 11h-6v6h6zm-2 4h-2v-2h2z"/><path d="m17 19h-6v6h6zm-2 4h-2v-2h2z"/><path d="m17 27h-6v6h6zm-2 4h-2v-2h2z"/><path d="m25 19h-6v6h6zm-2 4h-2v-2h2z"/><path d="m58 14.451v-3.451c0-1.103-.897-2-2-2h-2c-1.103 0-2 .897-2 2v5.434c0 .697.371 1.354.972 1.716l.63.377c2.096 1.258 3.398 3.558 3.398 6.002v3.471c0 3.86-3.141 7-7 7-2.158 0-4.188-1.01-5.506-2.684.311-.352.506-.81.506-1.316v-8c0-.799-.474-1.485-1.153-1.805.594-1.095 1.472-2.02 2.55-2.668l.633-.379c.599-.36.97-1.017.97-1.714v-5.434c0-1.103-.897-2-2-2h-2c-1.103 0-2 .897-2 2v3.451c-1.784 1.197-3.165 2.876-4.023 4.815-.29-.164-.62-.266-.977-.266v-15c0-1.654-1.346-3-3-3h-28c-1.654 0-3 1.346-3 3v15c-1.103 0-2 .897-2 2v12c0 1.103.897 2 2 2v21c0 1.654 1.346 3 3 3h4v2c0 1.103.897 2 2 2h16c1.103 0 2-.897 2-2v-2h4c1.654 0 3-1.346 3-3v-21c.644 0 1.213-.312 1.579-.787 2.248 4.129 6.615 6.787 11.421 6.787 7.168 0 13-5.832 13-13v-4.169c0-3.753-1.902-7.295-5-9.38zm-23-10.451v15h-2v-12h-9.026c.635-.838 1.026-1.87 1.026-3v-1h9c.552 0 1 .449 1 1zm-18 0v-1h2v2h2v-2h2v1c0 1.654-1.346 3-3 3s-3-1.346-3-3zm14 5v32h-22v-32zm-22 34h2v2h-2zm4 0h2v2h-2zm4 0h2v2h-2zm4 0h2v2h-2zm4 0h2v2h-2zm4 0h2v2h-2zm-24-39c0-.551.448-1 1-1h9v1c0 1.13.391 2.162 1.026 3h-9.026v12h-2zm-2 17h4v12h-4zm25 40h-16v-2h16zm7-5c0 .552-.448 1-1 1h-28c-.552 0-1-.448-1-1v-21h2v12h26v-12h2zm2-23h-4v-12h4zm2-2v-8h4v8zm4.515-15.143.485-.291v-4.566h2l.001 5.434-.632.378c-1.631.979-2.903 2.45-3.645 4.188h-2.273c.684-2.138 2.115-3.974 4.064-5.143zm17.485 12.143c0 6.065-4.935 11-11 11-4.165 0-7.934-2.363-9.794-6h2.333c1.663 2.474 4.46 4 7.46 4 4.963 0 9-4.038 9-9v-3.471c0-3.143-1.674-6.1-4.37-7.718l-.629-.377v-5.434h2v4.566l.485.292c2.786 1.671 4.515 4.726 4.515 7.973z"/></g></svg>