<svg id="_x33_0" enable-background="new 0 0 64 64" height="512" viewBox="0 0 64 64" width="512" xmlns="http://www.w3.org/2000/svg"><g><path d="m57.542 32.958-2.057-.9.229-.574c.817-2.046-.184-4.379-2.235-5.201-.473-.188-.971-.283-1.479-.283-1.645 0-3.103.987-3.714 2.514l-.134.336-16.509-7.223c.227-.508.357-1.057.357-1.627 0-1.474-.81-2.75-2-3.444v-2.904c0-5.322-4.33-9.652-9.652-9.652-3.68 0-6.988 2.044-8.634 5.336l-.332.664h-1.382c-1.654 0-3 1.346-3 3v4.394c-.136.241-.268.487-.375.748l-4.463 10.84c-.771 1.872-1.162 3.847-1.162 5.87 0 7.019 4.744 13.155 11.538 14.921l38.736 10.071c.396.104.806.156 1.217.156 1.922 0 3.661-1.138 4.431-2.898l5.314-12.147c.507-1.159.764-2.387.764-3.651 0-3.619-2.143-6.895-5.458-8.346zm-.802 1.832c2.588 1.132 4.26 3.689 4.26 6.514 0 .09-.01.179-.014.268l-6.648-6.648.404-1.009zm2.801 11.337-6.917-6.917.906-2.266 6.965 6.965c-.032.081-.057.163-.092.243zm-10.517 1.483c.283-.329.521-.704.69-1.124l.388-.97 6.752 6.752-.965 2.206zm-36.024-16.345 2 .512v4.227l-2 .001zm4 .709 5.745.019-2.82 4.007-2.925.002zm17.141-7.071-3.867 5.495-2.785-1.671 3.623-5.149zm9.033 16.39-13.855-6.062 1.175-1.67 13.423 5.873zm-18.639-2.738-2.785-1.671 2.167-3.079 1.823 3.039zm1.8-8.188 2.785 1.671-2.122 3.015-1.823-3.039zm-5.74 8.156 2.785 1.671-6.146 8.733-3.349-.871zm1.147 7.477h.527c.562 0 1.105.12 1.605.332l-2.668 3.628-1.903-.495zm3.725 1.542c.074.093.15.185.217.285.337.505.754.942 1.223 1.325l-1.414 1.923-2.202-.572zm3.001 2.861c.514.496.913 1.093 1.175 1.751l-2.067-.537zm.732-2.003-.901-.676c-.373-.28-.693-.619-.952-1.007-.978-1.466-2.524-2.419-4.242-2.656l5.039-7.161 12.443 5.444-7.812 10.624-.891-.232c-.316-1.722-1.269-3.274-2.684-4.336zm13.176-5.113-.091.228c-.422 1.057-.351 2.186.091 3.148l-5.433 7.389-2.084-.542zm-2.437 10.066 1.997 1.997-2.909-.756zm1.199-1.629 1.344-1.828 7.562 7.562-4.286-1.114zm3.005-7.466.323-.808c.422.542.975.993 1.658 1.267.473.188.97.283 1.477.283.193 0 .383-.016.571-.043l-.314.784c-.401 1-1.6 1.513-2.593 1.118-1.028-.411-1.532-1.579-1.122-2.601zm6.767-.762.399-.997c.002-.004.004-.008.006-.012h-.001l.502-1.256 6.864 6.864-.965 2.206zm-.767-14.239c.306-.763 1.035-1.257 1.857-1.257.254 0 .503.048.738.141 1.026.411 1.528 1.579 1.119 2.601l-4.402 11.005c-.404.996-1.598 1.506-2.59 1.112-1.027-.412-1.531-1.58-1.122-2.603h-.001zm-5.482 8.32-12.992-5.684 4.343-6.172 11.397 4.986zm-18.5-18.348c.304-.723 1.014-1.229 1.839-1.229 1.103 0 2 .897 2 2 0 .29-.068.57-.186.827zm-5.813-13.229c4.219 0 7.652 3.433 7.652 7.652v2.348c-1.639 0-3.052 1-3.667 2.429l-7.333-3.208v-2.221c0-1.654-1.346-3-3-3h-.361c1.342-2.469 3.881-4 6.709-4zm-10.348 6h4c.551 0 1 .449 1 1v1.375c-.705-.245-1.438-.375-2.19-.375-1.399 0-2.716.435-3.81 1.194v-2.194c0-.551.449-1 1-1zm-1.526 6.904c.726-1.764 2.428-2.904 4.336-2.904.65 0 1.283.132 1.879.393l14.553 6.367-5.095 7.24h-8.024l-3.774-.943-6.68-3.34zm-4.463 10.84.895-2.173 6.094 3.047v5.277l-7.99-.799c-.001-.082-.01-.162-.01-.244 0-1.761.34-3.479 1.011-5.108zm-.817 7.38 8.806.876h6.518l-6.662 9.466c-4.556-1.645-7.852-5.618-8.662-10.342zm50.093 20.749-9.607-9.607.011-.016c.255.182.528.345.832.467.473.188.97.283 1.477.283.47 0 .922-.089 1.347-.24l7.671 7.671c-.357.705-.995 1.22-1.731 1.442z"/><path d="m34 44c0-1.654-1.346-3-3-3s-3 1.346-3 3 1.346 3 3 3 3-1.346 3-3zm-4 0c0-.551.449-1 1-1s1 .449 1 1-.449 1-1 1-1-.449-1-1z"/></g></svg>