<svg id="_x33_0" enable-background="new 0 0 64 64" height="512" viewBox="0 0 64 64" width="512" xmlns="http://www.w3.org/2000/svg"><path d="m57.487 10.41-8.926-1.152c-11.504-1.485-22.917-4.097-33.92-7.765-2.521-.841-5.344-.581-7.659.693-.634-.742-1.568-1.186-2.582-1.186-1.875 0-3.4 1.525-3.4 3.4 0 2.152 2.908 13.678 4.643 20.357.341 1.321 1.535 2.243 2.902 2.243h.556c-.066.323-.101.658-.101 1 0 2.483 1.819 4.549 4.195 4.935-.126.331-.195.69-.195 1.065v2c0 1.302.839 2.402 2 2.816v2.184c0 1.103.897 2 2 2v2c0 1.103.897 2 2 2h2c1.103 0 2-.897 2-2v-2c1.103 0 2-.897 2-2v-2h2v24h8v-29c0-1.654-1.346-3-3-3h7c4.625 0 8.442-3.507 8.941-8h8.738c3.485 0 6.321-2.836 6.321-6.321 0-3.169-2.37-5.864-5.513-6.269zm-48.942 14.59c-.455 0-.853-.306-.967-.746-2.824-10.878-4.578-18.486-4.578-19.854 0-.772.628-1.4 1.4-1.4.567 0 1.074.338 1.292.862l6.4 15.361c.594 1.425 1.428 2.694 2.44 3.777h-.532c-1.627 0-3.061.793-3.974 2zm2.455 3c0-1.654 1.346-3 3-3h2.935c1.992 1.277 4.343 2 6.824 2 1.454 0 2.876-.26 4.241-.747v4.747h-14c-1.654 0-3-1.346-3-3zm33.706-12.586 3.49 5.586h-2.643l-3.704-5.926c.963.119 1.915.233 2.857.34zm2.535.285.292.032c1.294.144 2.515.73 3.437 1.651.737.739 1.262 1.665 1.515 2.676l.235.942h-2.166zm-5.428 7.309c-.416 1.158-1.514 1.992-2.813 1.992h-7.768c3.395-1.281 6.949-1.951 10.581-1.992zm-2.527-8.264 3.91 6.256h-1.033c-.53 0-1.059.013-1.586.038l-4.182-6.692c.976.139 1.939.271 2.891.398zm-5.485-.777 4.539 7.263c-.81.094-1.617.209-2.416.363l-5.047-8.075c.988.155 1.961.305 2.924.449zm-5.546-.874 5.608 8.974c-.749.195-1.492.414-2.229.662l-6.332-10.132c.998.171 1.981.336 2.953.496zm-5.557-.891 7.02 11.233-2.008.803c-.577.231-1.169.403-1.77.529-.281-3.026-1.592-5.835-3.768-8.01l-2.844-2.843c-.212-.212-.328-.493-.328-.793 0-.618.503-1.121 1.121-1.121.675 0 1.551.073 2.577.202zm-1.698 32.798h-2v-2h2zm2-4h-6v-2h6zm10-7v27h-4v-24h-13c-.552 0-1-.449-1-1v-2c0-.551.448-1 1-1h16c.552 0 1 .449 1 1zm6-5h-9v-2h9c2.414 0 4.434-1.721 4.899-4h2.021c-.488 3.387-3.401 6-6.92 6zm17.679-8h-1.899l-.357-1.427c-.34-1.362-1.046-2.608-2.04-3.604-1.242-1.241-2.887-2.031-4.63-2.224l-2.03-.226c-6.256-.695-12.917-1.657-20.365-2.941-2.225-.384-3.988-.578-5.237-.578-1.721 0-3.121 1.4-3.121 3.121 0 .834.324 1.618.914 2.207l2.844 2.843c1.851 1.851 2.962 4.243 3.193 6.82-.064.001-.128.009-.192.009-4.308 0-8.162-2.57-9.82-6.547l-6.038-14.491c1.839-1.026 4.094-1.242 6.107-.572 11.126 3.708 22.665 6.35 34.298 7.851l8.926 1.152c2.148.277 3.768 2.12 3.768 4.286 0 2.383-1.938 4.321-4.321 4.321z"/></svg>