<svg id="_x33_0" enable-background="new 0 0 64 64" height="512" viewBox="0 0 64 64" width="512" xmlns="http://www.w3.org/2000/svg"><path d="m59 23h2c1.103 0 2-.897 2-2v-2c0-4.411-3.589-8-8-8v-4h1.304c.781 1.829 2.327 3.265 4.226 3.897l.154.051.633-1.897-.155-.051c-1.485-.495-2.667-1.677-3.162-3.163l-.279-.837h-10.721v2h2v4h-6c-1.103 0-2 .897-2 2v2c0 1.103.897 2 2 2h1.143l.933 6h-15.965l-.778-4.958c.801-.075 1.613-.024 2.395.171l2.819.705c.22.054.447.082.672.082 1.533 0 2.781-1.248 2.781-2.781 0-2.346-1.758-4.31-4.089-4.568l-1.907-.212c-2.495-.277-4.941-.891-7.271-1.823-1.022-.408-2.099-.616-3.2-.616-1.948 0-3.533 1.585-3.533 3.533 0 .438.083.866.245 1.272l1.072 2.681c.611 1.527 2.069 2.514 3.714 2.514.14 0 .28-.009.42-.013l1.96 12.601c-2.465-1.677-5.37-2.588-8.411-2.588-8.271 0-15 6.729-15 15s6.729 15 15 15c5.546 0 10.676-3.123 13.259-8h2.31l.181.452c-.454.367-.75.921-.75 1.548v2c0 1.103.897 2 2 2h6c1.103 0 2-.897 2-2v-2c0-1.103-.897-2-2-2h-.969l-.897-2.243c1.193-1.288 1.866-2.985 1.866-4.757 0-.496-.054-.979-.152-1.446l7.915-8.707.646 4.155c-3.864 1.78-6.409 5.698-6.409 9.998 0 6.065 4.935 11 11 11s11-4.935 11-11c0-5.62-4.189-10.257-9.677-10.912l-3.154-20.088h4.831c1.103 0 2 .897 2 2v2c0 1.103.897 2 2 2zm-8-16h2v4h-2zm-5.613 18 .311 2h-15.96l-.314-2zm-13.387 12h-.691l-1.256-8h12.687l-7.848 8.633c-.883-.403-1.86-.633-2.892-.633zm-6.92 6h-6.264c-.414-1.161-1.514-2-2.816-2-1.654 0-3 1.346-3 3s1.346 3 3 3c1.302 0 2.402-.839 2.816-2h6.264c.224 1.556.956 2.949 2.031 4h-11.111c-2.757 0-5-2.243-5-5s2.243-5 5-5h11.111c-1.075 1.051-1.807 2.444-2.031 4zm-8.08 1c0 .552-.449 1-1 1s-1-.448-1-1 .449-1 1-1 1 .448 1 1zm0-8.943c1.724.188 3.327.864 4.654 1.943h-4.654zm-2 2.023c-1.183.17-2.269.636-3.185 1.322l-1.427-1.427c1.295-1.036 2.878-1.723 4.611-1.916v2.021zm-6.025 1.309 1.427 1.427c-.686.915-1.152 2.001-1.322 3.184h-2.021c.193-1.733.88-3.316 1.916-4.611zm.105 6.611c.17 1.183.636 2.269 1.322 3.184l-1.427 1.427c-1.036-1.295-1.723-2.878-1.916-4.611zm2.735 4.598c.915.686 2.001 1.152 3.185 1.322v2.021c-1.733-.193-3.316-.88-4.611-1.916zm5.185 1.402h4.655c-1.328 1.079-2.93 1.754-4.655 1.943zm5.031-34c-.823 0-1.552-.494-1.857-1.257l-1.072-2.681c-.068-.169-.102-.347-.102-.529 0-.845.688-1.533 1.533-1.533.846 0 1.673.159 2.458.473 2.497.999 5.119 1.656 7.792 1.953l1.907.212c1.317.146 2.31 1.255 2.31 2.581 0 .494-.487.881-.97.757l-2.817-.704c-.724-.18-1.468-.272-2.213-.272s-1.489.092-2.212.272l-1.121.28c-1.187.298-2.411.448-3.636.448zm4.121 1.493.219-.055 2.913 18.562h-2.007l-2.827-18.18c.572-.083 1.141-.187 1.702-.327zm-10.152 38.507c-7.168 0-13-5.832-13-13s5.832-13 13-13c3.318 0 6.45 1.249 8.865 3.506l.388 2.494h-.79c-2.098-2.54-5.146-4-8.463-4-6.065 0-11 4.935-11 11s4.935 11 11 11c3.319 0 6.365-1.46 8.462-4h2.486c-2.369 3.688-6.505 6-10.948 6zm23.001-2h-6.001v-2h6zm-5.278-4-2.652-6.629c-.205-.512.045-1.095.555-1.299.514-.207 1.102.056 1.302.556l2.949 7.372zm1.062-8.115c-.459-1.146-1.552-1.886-2.785-1.886-.381 0-.755.072-1.116.215-1.535.615-2.285 2.364-1.671 3.899l1.477 3.691c-2.119-.58-3.69-2.503-3.69-4.804 0-2.757 2.243-5 5-5s5 2.243 5 5c0 .925-.26 1.82-.731 2.596zm3.251-2.412c-.385-.656-.872-1.243-1.442-1.741l8.848-9.732h.567l.359 2.308zm11.14 8.527c.035.098.082.19.127.283l-1.47 1.469c-.348-.524-.602-1.116-.732-1.753h2.075zm1.542 1.696c.093.045.184.09.282.125v2.078c-.637-.13-1.229-.384-1.753-.732zm2.282.132c.099-.035.189-.086.284-.131l1.47 1.47c-.525.348-1.116.602-1.753.732v-2.071zm3.167-.075-1.46-1.46c.045-.094.073-.194.107-.292h2.084c-.129.636-.383 1.227-.731 1.752zm-1.288-3.753-.534-3.402c1.304.695 2.246 1.935 2.545 3.402zm-7.767 0c.192-.94.646-1.8 1.31-2.483l.387 2.483zm13.888 1c0 4.963-4.038 9-9 9s-9-4.037-9-9c0-3.323 1.862-6.36 4.733-7.915l.333 2.139c-1.902 1.296-3.066 3.445-3.066 5.776 0 3.859 3.14 7 7 7s7-3.141 7-7c0-3.126-2.075-5.815-5.013-6.686l-.338-2.154c4.207.774 7.351 4.437 7.351 8.84zm-8.011-.145c.039.264-.027.526-.187.741s-.393.354-.672.395c-.04.007-.086.009-.131.009-.491 0-.916-.367-.989-.862l-4.842-31.138h1.977zm2.011-32.855h-12v-2h12c3.309 0 6 2.691 6 6l.001 2h-2.001v-2c0-2.206-1.794-4-4-4z"/></svg>