<svg id="_x33_0" enable-background="new 0 0 64 64" height="512" viewBox="0 0 64 64" width="512" xmlns="http://www.w3.org/2000/svg"><g><circle cx="16" cy="58" r="1"/><path d="m55 33c4.411 0 8-3.589 8-8v-7c0-1.654-1.346-3-3-3h-6v-6c0-3.309-2.691-6-6-6h-4v-2h-2v2h-6c-1.103 0-2 .897-2 2v2c0 1.103.897 2 2 2h6v2h2v-2h4v16h-19v-2h4.857c1.733 0 3.143-1.41 3.143-3.142 0-1.553-1.159-2.891-2.697-3.11l-1.449-.207c-2.263-.323-4.425-1.219-6.254-2.591-.818-.613-1.829-.95-2.85-.95-2.619 0-4.75 2.131-4.75 4.75v1.25c0 2.206 1.794 4 4 4v2.732l-1.109 1.916-.597-.597c-1.322-1.322-3.081-2.051-4.951-2.051h-10.343c-1.654 0-3 1.346-3 3s1.346 3 3 3h1.28l2.792 8.376c-5.204 1.313-9.072 6.019-9.072 11.624 0 6.617 5.383 12 12 12 .618 0 1.237-.054 1.844-.148.373.089.757.148 1.156.148 1.832 0 3.421-1.002 4.291-2.476 1.843-1.414 3.246-3.348 4.017-5.524h.692v2c0 1.103.897 2 2 2h6c1.103 0 2-.897 2-2v-2c0-.527-.209-1.003-.542-1.36 1.542-1.191 2.542-3.054 2.542-5.149 0-1.164-.275-2.262-.75-3.246l11.75-8.986v3.127c-5.261 1.352-9 6.104-9 11.614 0 6.617 5.383 12 12 12s12-5.383 12-12c0-5.51-3.739-10.262-9-11.614v-6.386zm-1-2v-4.586l3.86 3.859c-.851.464-1.825.727-2.86.727zm-1 20c0 1.103-.897 2-2 2s-2-.897-2-2 .897-2 2-2 2 .897 2 2zm-5-2.618c-.402.46-.7 1.009-.858 1.618h-2.055c.301-1.754 1.387-3.281 2.913-4.173zm-.858 3.618c.094.363.238.704.425 1.019l-1.452 1.452c-.515-.722-.871-1.562-1.025-2.471zm1.839 2.433c.316.186.656.33 1.019.425v2.052c-.909-.154-1.749-.51-2.471-1.025zm3.019.425c.363-.094.704-.238 1.019-.425l1.452 1.452c-.722.515-1.562.871-2.471 1.025zm3.885-.387-1.452-1.452c.186-.316.33-.656.425-1.019h2.052c-.154.909-.51 1.749-1.025 2.471zm-1.027-4.471c-.158-.609-.456-1.157-.858-1.618v-2.556c1.526.892 2.612 2.42 2.913 4.173h-2.055zm-.858-26.414v-2.672l6.492 6.492c-.263.597-.622 1.14-1.054 1.617zm7-5.586v1.586l-2.586-2.586h1.586c.552 0 1 .449 1 1zm-5.414-1 5.414 5.414v2.586c0 .028-.004.054-.004.082l-6.996-6.996v-1.086zm-19.586-10v-2h6v2zm8 0v-2h4c2.206 0 4 1.794 4 4v38.142c-.322-.084-.653-.142-1-.142s-.678.058-1 .142v-38.142c0-1.103-.897-2-2-2zm-14.491 34c-.171 0-.339.028-.509.04v-10.04h16.046l-13.466 10.298c-.659-.19-1.352-.298-2.071-.298zm18.491-14v2h-19v-2zm-27-8v-1.25c0-1.517 1.233-2.75 2.75-2.75.591 0 1.177.195 1.65.55 2.097 1.573 4.576 2.6 7.17 2.97l1.449.207c.559.08.98.566.98 1.131.001.63-.512 1.142-1.142 1.142h-10.857c-1.103 0-2-.897-2-2zm6 4v18.303l-2 .316v-18.619zm-4 18.935-2.684.424 2.684-4.636zm0-8.203-5.227 9.028-2.555.403 7.782-13.44zm-11.811 22.98c-.6-.191-1.148-.483-1.648-.84l1.945-1.945c.303.214.626.399.968.553-.604.609-1.035 1.379-1.265 2.232zm-1.116-4.199-1.942 1.941c-.515-.724-.884-1.553-1.039-2.454h2.655c.1.177.209.348.326.513zm-1.004-2.513h-1.98c.307-1.835 1.441-3.388 3.019-4.256-.691.964-1.108 2.132-1.108 3.403 0 .29.028.574.069.853zm4.178-7.422-.521-1.564c.091-.003.181-.014.274-.014.376 0 .749.027 1.121.069zm-8.247-14.578c0-.551.448-1 1-1h10.343c1.336 0 2.592.521 3.537 1.465l.974.974-1.037 1.791-1.352-1.353c-.568-.565-1.321-.877-2.121-.877h-10.344c-.552 0-1-.449-1-1zm4.387 3h6.957c.267 0 .519.104.708.293l1.728 1.729-3.59 6.201c-.721-.133-1.452-.223-2.19-.223-.314 0-.622.023-.93.047zm-6.387 20c0-4.723 3.296-8.683 7.705-9.724l.635 1.904c-3.641.765-6.34 3.977-6.34 7.82 0 3.687 2.563 6.893 6.077 7.764.126.81.44 1.552.906 2.185-5.038-.512-8.983-4.778-8.983-9.949zm13 10c-1.654 0-3-1.346-3-3s1.346-3 3-3 3 1.346 3 3-1.346 3-3 3zm4.909-3.896c-.143-.783-.473-1.493-.935-2.104h2.185c-.329.749-.749 1.456-1.25 2.104zm12.091-2.104v2h-6v-2h3.491zm-2-2.051v-5.949h-2v6h-12v-4h-2v4h-.146c-2.125 0-3.854-1.729-3.854-3.853 0-1.908 1.367-3.508 3.252-3.806l14.402-2.273c.281-.046.569-.068.856-.068 3.027 0 5.49 2.463 5.49 5.491 0 2.312-1.755 4.201-4 4.458zm4.145-9.377c-.442-.506-.948-.955-1.511-1.327l14.366-10.986v2.482zm25.855 7.428c0 5.514-4.486 10-10 10s-10-4.486-10-10c0-4.415 2.882-8.244 7-9.534v2.145c-2.972 1.212-5 4.135-5 7.39 0 4.411 3.589 8 8 8s8-3.589 8-8c0-3.255-2.028-6.177-5-7.39v-2.145c4.118 1.29 7 5.119 7 9.534z"/></g></svg>