<svg id="_x33_0" enable-background="new 0 0 64 64" height="512" viewBox="0 0 64 64" width="512" xmlns="http://www.w3.org/2000/svg"><g><path d="m1 61h62v2h-62z"/><path d="m58.951 35c-.46-5.025-4.345-9.138-9.346-9.874l-.701-5.371.228-.137c4.295-2.575 6.029-7.982 4.033-12.577-1.594-3.669-5.34-6.041-9.543-6.041h-10.622c-1.103 0-2 .897-2 2v2c0 1.103.897 2 2 2h10.977c1.076 0 2.089.422 2.851 1.188.762.765 1.178 1.78 1.173 2.856-.002.338-.066.671-.16 1-.403-1.197-1.534-2.044-2.835-2.044-.137 0-.274.01-.393.026-.795.104-1.502.512-1.99 1.146-.49.636-.701 1.424-.596 2.217l.731 5.611h-12.486c-.529 0-1.057.047-1.582.117l-.453-2.117h2.763c1.103 0 2-.897 2-2 0-2.213-1.575-4.135-3.745-4.569l-6.704-1.341c-.298-.06-.605-.09-.911-.09-2.559 0-4.64 2.082-4.64 4.64v1.36c0 1.103.897 2 2 2h3.192l.936 4.367c-.822.609-1.567 1.315-2.21 2.116l-1.631 2.029c-1.048-.325-2.149-.512-3.287-.512-5.728 0-10.442 4.402-10.949 10h-4.051v2h4.051c.507 5.598 5.221 10 10.949 10 4.308 0 8.208-2.536 9.99-6.398.98.26 1.987.398 3.01.398.314 0 .619-.031.92-.078l.693 2.078h-1.613v2h6v-2h-2.28l-.902-2.706c1.311-.701 2.328-1.876 2.832-3.294h2.401c.507 5.598 5.221 10 10.949 10s10.442-4.402 10.949-10h4.051v-2zm-10.951-2c1.654 0 3 1.346 3 3s-1.346 3-3 3-3-1.346-3-3 1.346-3 3-3zm-15-30h6v2h-6zm10.977 2h-2.977v-2h2.622c3.406 0 6.433 1.899 7.71 4.839 1.514 3.486.342 7.553-2.713 9.722l-.314-2.409c1.074-1.142 1.688-2.607 1.695-4.099.008-1.612-.615-3.131-1.755-4.276-1.141-1.146-2.656-1.777-4.268-1.777zm.23 7.391c.165-.215.396-.348.671-.384.509-.068 1.044.323 1.113.864l2.369 18.165c-.121-.008-.237-.036-.36-.036-.571 0-1.111.116-1.622.293l-2.369-18.166c-.035-.263.035-.524.198-.736zm-13.935 8.609h11.157l-9.54 8.745c-.322-.178-.662-.324-1.016-.441l-1.764-8.232c.386-.045.775-.072 1.163-.072zm-11.272-7.36c0-1.456 1.185-2.64 2.64-2.64.174 0 .348.017.518.051l6.705 1.341c1.238.248 2.137 1.345 2.138 2.608h-12.001zm7.192 3.36 2.572 12h-1.955l-2.571-12zm-3.715 7.736c.341-.425.718-.816 1.121-1.177l1.165 5.441h-.3c-.922-1.115-2.023-2.021-3.255-2.685zm-.822 4.264h-2.605l.883-1.098c.612.297 1.189.665 1.722 1.098zm-5.655 16c-4.963 0-9-4.037-9-9 0-4.962 4.037-9 9-9 .656 0 1.298.077 1.922.212l-1.48 1.841c-1.576.21-2.852 1.34-3.276 2.839-1.343.928-2.166 2.459-2.166 4.108 0 2.757 2.243 5 5 5 1.815 0 3.436-.976 4.317-2.499l3.75 1.442c-1.496 3.053-4.612 5.057-8.067 5.057zm-2.636-10.402c.424.928 1.193 1.688 2.177 2.066l2.882 1.109c-.553.758-1.444 1.227-2.423 1.227-1.654 0-3-1.346-3-3 0-.499.137-.975.364-1.402zm17.807 3.753-1.222-3.667-1.896.633 1.219 3.656c-.093.006-.179.027-.272.027-1.204 0-2.385-.219-3.507-.651l-9.234-3.552c-.753-.289-1.259-1.026-1.259-1.833 0-1.083.881-1.964 1.964-1.964h12.036c2.206 0 4 1.794 4 4 0 1.405-.731 2.637-1.829 3.351zm2.298-7.341 9.697-8.888.492 3.77c-3.708 1.592-6.244 5.096-6.608 9.108h-2.05c0-1.533-.582-2.928-1.531-3.99zm14.531 13.99c-4.963 0-9-4.037-9-9 0-3.424 1.939-6.508 4.929-8.024l.581 4.454c-.929.908-1.51 2.171-1.51 3.57 0 2.757 2.243 5 5 5s5-2.243 5-5c0-1.858-1.031-3.464-2.54-4.326l-.583-4.467c4.079.871 7.123 4.512 7.123 8.793 0 4.963-4.037 9-9 9z"/><path d="m20 51v6h10v-6zm8 4h-6v-2h6z"/><path d="m6 51v6h10v-6zm8 4h-6v-2h6z"/><path d="m48 51v6h10v-6zm8 4h-6v-2h6z"/><path d="m34 51v6h10v-6zm8 4h-6v-2h6z"/></g></svg>