<svg id="_x33_0" enable-background="new 0 0 64 64" height="512" viewBox="0 0 64 64" width="512" xmlns="http://www.w3.org/2000/svg"><g><path d="m53.703 27.83 1.77-3.539c.344-.69.527-1.464.527-2.291 0-2.414-1.721-4.434-4-4.899v-8.101c0-3.309-2.691-6-6-6h-6v-2h-2v2h-6c-1.103 0-2 .897-2 2v2c0 1.103.897 2 2 2h6v2h2v-2h6v6h-2c0-1.103-.897-2-2-2h-2c-1.103 0-2 .897-2 2v6h-19.486l-.333-2h5.118c1.489 0 2.701-1.212 2.701-2.701 0-1.214-.818-2.285-1.99-2.605l-9.179-2.503c-.465-.127-.943-.191-1.422-.191-2.982 0-5.409 2.427-5.409 5.409 0 1.429 1.162 2.591 2.591 2.591h1.562l.518 3.106-5.444 7.258c-3.752 2.515-6.227 6.791-6.227 11.636v4 4c0 7.72 6.28 14 14 14h2c2.792 0 5.547-.731 8.023-2.147 4.24-2.424 9.658-2.455 14.008.031 2.422 1.385 5.177 2.116 7.969 2.116h2c7.72 0 14-6.28 14-14v-4-4c0-6.068-3.887-11.232-9.297-13.17zm-7.519-6.83c.347.974 1.173 1.721 2.201 1.936.769 1.26 1.273 2.654 1.484 4.108-.289-.018-.576-.044-.869-.044h-2c-1.009 0-2.012.099-3 .288v-6.288zm7.816 1.056c0 .463-.109.928-.316 1.342l-1.792 3.584c-.195-1.539-.667-3.027-1.391-4.399.891-.521 1.499-1.478 1.499-2.583v-.815c1.161.416 2 1.525 2 2.871zm-22-15.056v-2h6v2zm8 0v-2h6c2.206 0 4 1.794 4 4v11c0 .552-.448 1-1 1s-1-.448-1-1v-11c0-1.103-.897-2-2-2zm6 10v2h-2v-2zm-4-2v12.806c-.68.223-1.348.491-2 .806v-13.612zm-22.451 12.213-.035-.213h18.486v2.649c-4.074 1.909-9.008 1.767-13.031-.532-1.679-.961-3.519-1.598-5.42-1.904zm18.451-4.213v2h-18.82l-.333-2zm-28-6.591c0-1.88 1.529-3.409 3.409-3.409.302 0 .604.04.897.12l9.177 2.503c.304.083.517.361.517.676 0 .387-.314.701-.701.701h-12.708c-.326 0-.591-.265-.591-.591zm6.153 2.591 1.336 8.016c-.163-.005-.326-.016-.489-.016h-1.487l-1.333-8zm-3.028 5.833.375 2.251c-.834.089-1.645.258-2.429.488zm1.875 36.167c-6.617 0-12-5.383-12-12v-4c0-.805.083-1.591.234-2.352l17.763 17.763c-1.293.384-2.639.589-3.997.589zm8.977-1.853c-.304.174-.616.333-.932.483l-19.153-19.152c.299-.731.666-1.425 1.096-2.076l20.148 20.148c-.392.185-.78.38-1.159.597zm-11.992-25.748 24.141 24.141c-1.204-.32-2.446-.492-3.697-.526l-22.753-22.752c.731-.364 1.503-.653 2.309-.863zm-4.066 1.934 21.831 21.831c-.874.124-1.736.323-2.581.591l-20.929-20.929c.512-.549 1.073-1.048 1.679-1.493zm39.081 25.667c-2.025 0-4.026-.446-5.89-1.304l-26.668-26.668c.186-.008.37-.028.558-.028h2c2.444 0 4.856.641 7.031 1.884 3.37 1.927 7.393 2.524 11.197 1.759l21.512 21.512c-2.091 1.771-4.791 2.845-7.74 2.845zm-3.068-27.654 16.989 16.989c-.1.895-.304 1.757-.59 2.581l-18.804-18.803c.778-.328 1.583-.583 2.405-.767zm-4.291 1.709 19.815 19.815c-.375.665-.81 1.292-1.301 1.871l-20.713-20.714c.752-.266 1.486-.591 2.199-.972zm21.359 12.531-14.567-14.567c.189-.008.377-.019.567-.019h2c6.617 0 12 5.383 12 12zm-12-16.586h-2c-2.792 0-5.547.731-8.023 2.147-4.24 2.424-9.658 2.455-14.008-.031-2.422-1.385-5.177-2.116-7.969-2.116h-2c-4.543 0-8.575 2.184-11.134 5.547 1.773-4.416 6.091-7.547 11.134-7.547h2c2.444 0 4.856.641 7.031 1.884 4.844 2.77 11.039 2.801 15.992-.031 2.121-1.212 4.533-1.853 6.977-1.853h2c5.043 0 9.361 3.131 11.134 7.547-2.559-3.363-6.591-5.547-11.134-5.547z"/><path d="m26 39h8v2h-8z"/><path d="m30 43h8v2h-8z"/><path d="m34 47h8v2h-8z"/><path d="m38 51h8v2h-8z"/><path d="m42 55h8v2h-8z"/></g></svg>