<svg id="_x33_0" enable-background="new 0 0 64 64" height="512" viewBox="0 0 64 64" width="512" xmlns="http://www.w3.org/2000/svg"><g><path d="m39.459 8h-10.73c-2.556 0-5.109.314-7.588.934-8.129 2.032-15.213 7.349-19.436 14.587l-.14.239c-.37.635-.565 1.357-.565 2.091 0 2.288 1.861 4.149 4.149 4.149h16.851c3.86 0 7 3.14 7 7v7.586l-9.414 9.414 5.414 5.414 9.414-9.414h2.697c1.39 0 2.782-.329 4.025-.95l16.1-8.05h2.125c1.425 0 2.663-1.014 2.942-2.412.462-2.315.697-4.686.697-7.047 0-12.981-10.56-23.541-23.541-23.541zm15.846 9h-14.476c-2.112 0-3.829 1.717-3.829 3.829 0 1.022.398 1.984 1.122 2.707l2.464 2.464h-10.98c-.198 0-.39-.058-.555-.168l-.732-.488c-1.319-.879-2.854-1.344-4.439-1.344h-12.314c-.312 0-.566-.254-.566-.566 0-.103.028-.203.081-.291l2.221-3.702c.456-.761.698-1.633.698-2.521 0-.756-.179-1.514-.517-2.191l-.163-.326c.53-.329 1.069-.644 1.619-.939.22.326.396.7.58 1.251.454 1.367 1.728 2.285 3.168 2.285.296 0 .592-.04.879-.118l9.224-2.516c1.301-.355 2.21-1.545 2.21-2.953 0-.491-.097-.963-.25-1.414h3.469l.432 1.728c.334 1.338 1.531 2.273 2.917 2.273 2.876 0 5.764.286 8.582.85l.418.084c.222.044.448.066.674.066 1.356 0 2.561-.796 3.117-2.007 1.843 1.088 3.507 2.439 4.946 4.007zm-6.721-4.943c-.243.653-.949 1.049-1.625.916l-.417-.083c-2.947-.591-5.967-.89-8.98-.89-.46 0-.859-.312-.97-.758l-.311-1.242h3.179c3.264 0 6.349.751 9.124 2.057zm-26.959-1.182c2.259-.565 4.583-.853 6.911-.869.295.411.464.914.464 1.466 0 .45-.303.847-.737.965l-9.224 2.516c-.678.183-1.4-.196-1.644-.927-.172-.517-.373-.988-.649-1.445 1.568-.707 3.198-1.286 4.879-1.706zm6.789 37.125 1.586-1.586 2.586 2.586-1.586 1.586zm1.172 4-1.586 1.586-2.586-2.586 1.586-1.586zm-7.172 2 1.586-1.586 2.586 2.586-1.586 1.586zm17.828-6.739c-.967.484-2.05.739-3.131.739h-2.697l-3.414-3.414v-7.586c0-4.962-4.038-9-9-9h-16.851c-1.185 0-2.149-.964-2.149-2.149 0-.38.101-.754.292-1.083l.14-.239c2.078-3.562 4.902-6.62 8.213-9.003l.048.097c.2.401.306.85.306 1.297 0 .525-.143 1.041-.413 1.491l-2.222 3.703c-.238.399-.364.855-.364 1.32 0 1.415 1.151 2.566 2.566 2.566h12.314c1.188 0 2.34.349 3.329 1.008l.732.488c.495.33 1.07.504 1.665.504h12.892c1.418 1.627 2.52 3.462 3.278 5.437-2.58-2.218-5.824-3.437-9.261-3.437h-.515c-1.654 0-3 1.346-3 3v8.764c0 2.336 1.9 4.236 4.236 4.236.654 0 1.309-.155 1.895-.447l9.105-4.553h4.527zm6.729-7.864-8.735 4.367c-.309.155-.655.236-1 .236-1.233 0-2.236-1.003-2.236-2.236v-8.764c0-.551.449-1 1-1h.515c3.27 0 6.345 1.273 8.657 3.586 1.034 1.035 1.66 2.368 1.799 3.806-.001.002 0 .003 0 .005zm13.37-1.201c-.093.466-.506.804-.981.804h-10.409c-.244-5.049-2.302-9.765-5.901-13.364l-3.515-3.515c-.345-.345-.535-.804-.535-1.292 0-1.009.82-1.829 1.829-1.829h16.109c2.545 3.537 4.062 7.86 4.062 12.541 0 2.23-.222 4.469-.659 6.655z"/><path d="m32.219 15c-.226 0-.452.028-.675.083l-10.856 2.714c-.994.249-1.688 1.138-1.688 2.162 0 1.094.783 2.018 1.862 2.198l10.825 1.805c.154.025.31.038.466.038 1.57 0 2.847-1.277 2.847-2.847v-3.372c0-1.533-1.248-2.781-2.781-2.781zm.781 6.153c0 .515-.494.919-.986.836l-10.824-1.804c-.11-.019-.19-.114-.19-.226 0-.105.071-.196.173-.222l10.854-2.714c.065-.015.129-.023.192-.023.431 0 .781.35.781.781z"/></g></svg>