<svg id="_x33_0" enable-background="new 0 0 64 64" height="512" viewBox="0 0 64 64" width="512" xmlns="http://www.w3.org/2000/svg"><g><path d="m32 47c1.654 0 3-1.346 3-3s-1.346-3-3-3-3 1.346-3 3 1.346 3 3 3zm0-4c.552 0 1 .449 1 1s-.448 1-1 1-1-.449-1-1 .448-1 1-1z"/><path d="m32 51c3.859 0 7-3.14 7-7s-3.141-7-7-7-7 3.14-7 7 3.141 7 7 7zm0-12c2.757 0 5 2.243 5 5s-2.243 5-5 5-5-2.243-5-5 2.243-5 5-5z"/><path d="m48 29h-32c-1.654 0-3 1.346-3 3v24c0 1.654 1.346 3 3 3h32c1.654 0 3-1.346 3-3v-24c0-1.654-1.346-3-3-3zm1 3v11h-2v-10h-8v-2h9c.552 0 1 .449 1 1zm-22 1v-2h10v2zm-1.305 2c-2.834 1.992-4.695 5.28-4.695 9s1.861 7.008 4.695 9h-6.695v-18zm6.305 0c4.963 0 9 4.038 9 9s-4.037 9-9 9-9-4.038-9-9 4.037-9 9-9zm5 20v2h-10v-2zm1.305-2c2.834-1.992 4.695-5.28 4.695-9s-1.861-7.008-4.695-9h6.695v18zm-22.305-22h9v2h-8v10h-2v-11c0-.551.448-1 1-1zm-1 25v-11h2v10h8v2h-9c-.552 0-1-.449-1-1zm33 1h-9v-2h8v-10h2v11c0 .551-.448 1-1 1z"/><path d="m48 25h-5.509c.324-.603.509-1.283.509-2 0-.894-.283-1.733-.774-2.431.467-.367.774-.93.774-1.569v-2c0-.142-.016-.281-.045-.415 4.633-1.296 8.045-5.545 8.045-10.585v-2c0-1.654-1.346-3-3-3h-32c-1.654 0-3 1.346-3 3v2c0 3.72 1.861 7.008 4.695 9h-7.695c-1.654 0-3 1.346-3 3s1.346 3 3 3h11.509c-.324.603-.509 1.283-.509 2s.185 1.397.509 2h-5.509c-3.859 0-7 3.14-7 7v24c0 3.86 3.141 7 7 7h32c3.859 0 7-3.14 7-7v-24c0-3.86-3.141-7-7-7zm-11 0v-4h2.764c.762.381 1.236 1.147 1.236 2s-.474 1.619-1.236 2zm-6-4v4h-2v-4zm2 0h2v4h-2zm8-4 .001 2h-18.001v-2zm-25-14h32c.552 0 1 .449 1 1v1h-34v-1c0-.551.448-1 1-1zm-.941 4h33.882c-.499 4.493-4.316 8-8.941 8h-16c-4.625 0-8.442-3.507-8.941-8zm-6.059 11c0-.551.448-1 1-1h11v2h-11c-.552 0-1-.449-1-1zm14 5c0-.853.474-1.619 1.236-2h2.764v4h-2.764c-.762-.381-1.236-1.147-1.236-2zm30 33c0 2.757-2.243 5-5 5h-32c-2.757 0-5-2.243-5-5v-24c0-2.757 2.243-5 5-5h32c2.757 0 5 2.243 5 5z"/></g></svg>