<svg id="_x33_0" enable-background="new 0 0 64 64" height="512" viewBox="0 0 64 64" width="512" xmlns="http://www.w3.org/2000/svg"><g><circle cx="54" cy="22" r="1"/><path d="m54 17c-2.757 0-5 2.243-5 5s2.243 5 5 5 5-2.243 5-5-2.243-5-5-5zm0 8c-1.654 0-3-1.346-3-3s1.346-3 3-3 3 1.346 3 3-1.346 3-3 3z"/><circle cx="10" cy="54" r="1"/><path d="m10 49c-2.757 0-5 2.243-5 5s2.243 5 5 5 5-2.243 5-5-2.243-5-5-5zm0 8c-1.654 0-3-1.346-3-3s1.346-3 3-3 3 1.346 3 3-1.346 3-3 3z"/><circle cx="28" cy="54" r="1"/><path d="m28 49c-2.757 0-5 2.243-5 5s2.243 5 5 5 5-2.243 5-5-2.243-5-5-5zm0 8c-1.654 0-3-1.346-3-3s1.346-3 3-3 3 1.346 3 3-1.346 3-3 3z"/><circle cx="14" cy="10" r="1"/><path d="m14 5c-2.757 0-5 2.243-5 5s2.243 5 5 5 5-2.243 5-5-2.243-5-5-5zm0 8c-1.654 0-3-1.346-3-3s1.346-3 3-3 3 1.346 3 3-1.346 3-3 3z"/><circle cx="32" cy="10" r="1"/><path d="m32 5c-2.757 0-5 2.243-5 5s2.243 5 5 5 5-2.243 5-5-2.243-5-5-5zm0 8c-1.654 0-3-1.346-3-3s1.346-3 3-3 3 1.346 3 3-1.346 3-3 3z"/><circle cx="42" cy="34" r="1"/><path d="m42 29c-2.757 0-5 2.243-5 5s2.243 5 5 5 5-2.243 5-5-2.243-5-5-5zm0 8c-1.654 0-3-1.346-3-3s1.346-3 3-3 3 1.346 3 3-1.346 3-3 3z"/><path d="m54 13c-1.239 0-2.418.255-3.494.71-3.775-.594-7.191-2.504-9.672-5.41-.798-4.152-4.453-7.3-8.834-7.3-2.06 0-4.053.708-5.654 2h-6.691c-1.602-1.292-3.595-2-5.655-2-4.963 0-9 4.038-9 9s4.037 9 9 9c2.06 0 4.053-.708 5.654-2h6.691c1.602 1.292 3.595 2 5.654 2 2.195 0 4.206-.792 5.77-2.102 2.814.796 5.285 2.57 6.942 4.975l-3.136 3.136c-4.765.223-8.575 4.17-8.575 8.991 0 1.169.231 2.283.638 3.308-.739 3.292-2.927 6.144-5.923 7.704-1.958.062-3.842.756-5.369 1.988h-6.691c-1.602-1.292-3.595-2-5.654-2-4.963 0-9 4.037-9 9s4.037 9 9 9c2.06 0 4.053-.708 5.654-2h6.691c1.602 1.292 3.595 2 5.654 2 4.963 0 9-4.037 9-9 0-1.219-.246-2.38-.687-3.441.39-3.09 2.074-5.853 4.616-7.629.352.042.708.07 1.071.07 4.82 0 8.769-3.81 8.99-8.576l3.434-3.434c4.766-.222 8.576-4.169 8.576-8.99 0-4.962-4.037-9-9-9zm-22 4c-1.702 0-3.346-.622-4.63-1.751l-.283-.249h-8.174l-.283.249c-1.284 1.129-2.928 1.751-4.63 1.751-3.859 0-7-3.14-7-7s3.141-7 7-7c1.702 0 3.346.622 4.63 1.751l.283.249h8.174l.283-.249c1.284-1.129 2.928-1.751 4.63-1.751 3.859 0 7 3.14 7 7s-3.141 7-7 7zm7.278-1.727c.85-1.17 1.423-2.548 1.629-4.046 2.06 1.873 4.516 3.235 7.197 3.991-1.279 1.114-2.238 2.579-2.729 4.247-1.639-1.886-3.742-3.343-6.097-4.192zm-11.278 45.727c-1.702 0-3.346-.622-4.63-1.751l-.283-.249h-8.174l-.283.249c-1.284 1.129-2.928 1.751-4.63 1.751-3.859 0-7-3.141-7-7s3.141-7 7-7c1.702 0 3.346.622 4.63 1.751l.283.249h8.174l.283-.249c1.284-1.129 2.928-1.751 4.63-1.751 3.859 0 7 3.141 7 7s-3.141 7-7 7zm6.813-12.864c-1.074-1.246-2.48-2.198-4.083-2.71 1.911-1.506 3.389-3.511 4.27-5.781.932 1.153 2.14 2.074 3.525 2.656-1.746 1.576-3.025 3.589-3.712 5.835zm19.187-19.136h-.414l-4.586 4.586v.414c0 3.859-3.141 7-7 7s-7-3.141-7-7c0-3.86 3.141-7 7-7h.414l4.586-4.586v-.414c0-3.86 3.141-7 7-7s7 3.14 7 7-3.141 7-7 7z"/></g></svg>