<svg id="_x33_0" enable-background="new 0 0 64 64" height="512" viewBox="0 0 64 64" width="512" xmlns="http://www.w3.org/2000/svg"><path d="m42.414 25h14.586c1.103 0 2-.897 2-2v-2h2c1.103 0 2-.897 2-2v-8c0-1.103-.897-2-2-2h-2v-2c0-1.103-.897-2-2-2h-32.184c-.414-1.161-1.514-2-2.816-2h-13c0-1.103-.897-2-2-2h-4c-1.103 0-2 .897-2 2v24c0 1.103.897 2 2 2h4c1.103 0 2-.897 2-2h13c1.302 0 2.402-.839 2.816-2h4.184v4h2v10h-3c-1.654 0-3 1.346-3 3v8c0 1.654 1.346 3 3 3h12c1.654 0 3-1.346 3-3 0-3.86 3.141-7 7-7s7 3.14 7 7c0 2.727-1.588 5.187-4.019 6.333-.75-.838-1.829-1.333-2.981-1.333-2.206 0-4 1.794-4 4s1.794 4 4 4c7.168 0 13-5.832 13-13s-5.832-13-13-13c-2.924 0-5.727.981-8.009 2.773-.531-.475-1.224-.773-1.991-.773h-1v-10.586zm-1.414-1.414-3.414 3.414h-6.586v-12h10zm16-6.586h-4v-4h4zm-6 6h-2v-16h2zm2 0v-4h4v4zm8-12v8h-2v-8zm-4 0h-4v-4h4zm-26-4h10v2h-10zm-8 12h-6v-8h6zm-20 8v-24h4l.001 24zm19-2h-13v-20h13c.552 0 1 .449 1 1v3h-8v12h8v3c0 .551-.448 1-1 1zm3-2v-16h4v4h14v-4h4v16h-4v-10h-14v10zm2 27v-1h6v-2h-6v-2h6v-2h-6v-1c0-.551.448-1 1-1h7v10h-7c-.552 0-1-.449-1-1zm34 0c0 6.065-4.935 11-11 11-1.103 0-2-.897-2-2s.897-2 2-2c.729 0 1.401.397 1.754 1.038l.407.741.798-.278c3.613-1.262 6.041-4.678 6.041-8.501 0-4.962-4.037-9-9-9-2.826 0-5.349 1.312-7 3.356v-2.356c0-.146-.023-.287-.043-.427 1.978-1.657 4.453-2.573 7.043-2.573 6.065 0 11 4.935 11 11zm-20-8v8c0 .551-.448 1-1 1h-3v-10h3c.552 0 1 .449 1 1zm-8-3v-10h4v10z"/></svg>