<svg id="_x33_0" enable-background="new 0 0 64 64" height="512" viewBox="0 0 64 64" width="512" xmlns="http://www.w3.org/2000/svg"><g><path d="m47.313 12.607-23.398 9.533c-1.77.721-2.915 2.423-2.915 4.336 0 1.25.487 2.426 1.371 3.31l.874.874-1.886 1.572 1.281 1.537 2.026-1.688 9.548 9.548c.884.884 2.06 1.371 3.31 1.371 1.912 0 3.614-1.145 4.335-2.915l9.533-23.398c.477-1.169.207-2.501-.686-3.394-.893-.894-2.225-1.16-3.393-.686zm-8.727 8.393c.267.268.414.622.414 1s-.147.732-.414 1l-.586.586c-.535.533-1.465.533-2 0l-2.992-2.992 3.73-1.52zm-14.801 7.371c-.499-.499-.785-1.19-.785-1.895 0-1.096.655-2.07 1.669-2.483l6.33-2.579 1.519 1.519-1.73 1.442-1.081-1.081-1.414 1.414.953.953-1.167.972-1.355-1.355-1.414 1.412 1.227 1.227-1.748 1.457zm25.756-12.438-9.533 23.398c-.413 1.014-1.388 1.669-2.484 1.669-.705 0-1.396-.286-1.896-.785l-9.42-9.42 1.748-1.457 1.352 1.352 1.414-1.414-1.222-1.223 1.167-.972 1.627 1.627 1.414-1.414-1.498-1.498 1.73-1.442.646.646c.645.645 1.502 1 2.414 1s1.77-.355 2.414-1l.586-.586c.645-.645 1-1.502 1-2.414s-.355-1.77-.985-2.399l-1.283-1.338 9.336-3.804c.139-.056.283-.083.427-.083.294 0 .582.114.799.331.321.322.419.804.247 1.226z"/><circle cx="54" cy="10" r="1"/><path d="m12.543 46.384-5.117 7.675c-.279.418-.426.904-.426 1.406 0 1.397 1.138 2.535 2.535 2.535h.194c.298 0 .59-.052.866-.153l9.565-3.478c1.101-.399 1.84-1.455 1.84-2.626 0-.735-.298-1.456-.818-1.976l-3.857-3.857c-.588-.587-1.368-.91-2.198-.91-1.041 0-2.008.518-2.584 1.384zm7.225 4.798c.147.147.232.352.232.561 0 .333-.21.633-.522.747l-9.568 3.478c-.057.021-.118.032-.181.032h-.194c-.295 0-.535-.24-.535-.535 0-.106.031-.209.09-.297l5.117-7.676c.206-.308.55-.492.92-.492.296 0 .574.115.783.324z"/><path d="m39 50c0 1.654 1.346 3 3 3s3-1.346 3-3-1.346-3-3-3-3 1.346-3 3zm4 0c0 .552-.448 1-1 1s-1-.448-1-1 .448-1 1-1 1 .448 1 1z"/><path d="m62 10.586-8.586-8.586c-1.289-1.289-3.539-1.289-4.828 0l-.879.879c-.566.566-.879 1.32-.879 2.121s.313 1.555.879 2.121l.5.501-25.924 10.034c-1.655.638-3.507.344-4.881-.731.387-.563.598-1.227.598-1.925 0-.912-.355-1.77-1-2.414l-.586-.586c-1.289-1.289-3.539-1.289-4.828 0l-6.586 6.586c-.645.644-1 1.502-1 2.414s.355 1.77 1 2.414l.586.586c.644.645 1.502 1 2.414 1 .713 0 1.389-.224 1.96-.626l4.662 4.662c.876.876 1.378 2.089 1.378 3.327 0 .883-.247 1.745-.715 2.494l-8.651 13.842-.44-.221c-.861-.43-1.913-.185-2.494.59l-1.636 2.181c-.686.914-1.064 2.047-1.064 3.189 0 1.241.438 2.449 1.231 3.401l3.06 3.672c.789.947 1.948 1.489 3.179 1.489.464 0 .921-.077 1.359-.229l21.156-7.359c1.205-.42 2.015-1.558 2.015-2.834v-3.159l2.185 2.186c.736 3.145 3.552 5.395 6.815 5.395 3.859 0 7-3.141 7-7 0-2.547-1.351-4.837-3.513-6.072l10.891-28.135.501.5c1.17 1.17 3.072 1.17 4.242 0l.879-.879c.645-.645 1-1.502 1-2.414s-.355-1.77-1-2.414zm-55 12-.586-.586c-.267-.268-.414-.622-.414-1s.147-.732.414-1l6.586-6.586c.268-.267.622-.414 1-.414s.732.147 1 .414l.586.586c.267.268.414.622.414 1s-.147.732-.414 1l-6.586 6.586c-.535.533-1.465.533-2 0zm53.586-8.586-.879.879c-.391.391-1.023.391-1.414 0l-2.671-2.672-12.689 32.779.919.367c1.913.764 3.148 2.588 3.148 4.647 0 2.757-2.243 5-5 5-2.407 0-4.475-1.714-4.915-4.076l-.058-.305-4.027-4.029v-2.176c0-1.331-1.083-2.414-2.414-2.414-.579 0-1.146.214-1.582.591l-5.59-5.591c-1.289-1.289-3.539-1.289-4.828 0l-.586.586c-.645.645-1 1.502-1 2.414s.355 1.77 1 2.414l4.586 4.586c.645.645 1.502 1 2.414 1s1.77-.355 2.414-1l2.879-2.879c.238-.239.707-.045.707.293v2.59 5.574c0 .425-.27.805-.671.944l-21.156 7.36c-.827.283-1.785.021-2.346-.65l-3.06-3.672c-.495-.594-.767-1.348-.767-2.122 0-.713.235-1.419.663-1.989l1.636-2.182 2.067 1.033 9.615-15.384c.666-1.066 1.019-2.295 1.019-3.553 0-1.766-.716-3.493-1.964-4.741l-4.622-4.622 4.621-4.621c1.937 1.598 4.596 2.06 6.971 1.142l28.787-11.143-2.672-2.671c-.39-.39-.39-1.024 0-1.414l.879-.879c.535-.533 1.465-.533 2 0l8.586 8.586c.267.268.414.622.414 1s-.147.732-.414 1zm-33.001 30.001-1.585 1.585c-.535.533-1.465.533-2 0l-4.586-4.586c-.267-.268-.414-.622-.414-1s.147-.732.414-1l.586-.586c.268-.267.622-.414 1-.414s.732.147 1 .414z"/></g></svg>