<svg id="_x33_0" enable-background="new 0 0 64 64" height="512" viewBox="0 0 64 64" width="512" xmlns="http://www.w3.org/2000/svg"><g><circle cx="23" cy="53" r="1"/><path d="m49.3 43.559c-.377-.947-1.28-1.559-2.3-1.559s-1.923.612-2.3 1.557l-1.449 3.624c-.167.417-.251.856-.251 1.303 0 1.939 1.577 3.516 3.516 3.516h.969c1.938 0 3.515-1.577 3.515-3.516 0-.447-.084-.886-.251-1.306zm-1.816 6.441h-.969c-.835 0-1.515-.68-1.515-1.516 0-.193.036-.383.108-.563l1.449-3.623c.073-.181.247-.298.443-.298s.37.117.442.3l1.449 3.62c.073.182.109.372.109.564 0 .836-.68 1.516-1.516 1.516z"/><path d="m45 40c0-1.018-.611-1.921-1.558-2.3l-3.622-1.45c-.418-.166-.856-.25-1.304-.25-1.939 0-3.516 1.577-3.516 3.516v.969c0 1.938 1.577 3.515 3.516 3.515.448 0 .887-.084 1.306-.251l3.622-1.449c.945-.379 1.556-1.282 1.556-2.3zm-2.3.443-3.62 1.448c-.181.072-.371.109-.564.109-.836 0-1.516-.68-1.516-1.516v-.969c0-.835.68-1.515 1.516-1.515.193 0 .384.037.563.108l3.62 1.449c.183.073.301.247.301.443s-.118.37-.3.443z"/><path d="m59.418 29.933 2.53-14.551c.034-.197.052-.397.052-.596 0-1.5-.956-2.825-2.378-3.3l-.966-.322c-.328-.109-.669-.164-1.014-.164-1.427 0-2.662.917-3.073 2.282l-3.407 11.274c-.384-.103-.771-.189-1.161-.263v-1.293c0-1.323-.866-2.436-2.057-2.834l-.373-5.224c1.933-.279 3.429-1.931 3.429-3.942 0-2.206-1.794-4-4-4-.203 0-.403.023-.601.053-.554-.641-1.362-1.053-2.261-1.053h-.267c-1.574 0-2.89 1.23-2.993 2.801l-.814 12.201c-1.66.685-3.181 1.693-4.438 2.998h-23.626c-6.065 0-11 4.935-11 11 0 4.934 3.319 9.255 8 10.58v5.42c0 1.654 1.346 3 3 3h6.101c.465 2.279 2.484 4 4.899 4 1.627 0 3.061-.793 3.974-2h20.026c8.822 0 16-7.178 16-16 0-3.674-1.276-7.225-3.582-10.067zm-2.418 9.583v.969c0 .835-.68 1.515-1.516 1.515-.193 0-.384-.037-.563-.108l-3.62-1.449c-.183-.073-.301-.247-.301-.443s.118-.37.3-.443l3.62-1.448c.181-.072.371-.109.564-.109.836 0 1.516.68 1.516 1.516zm-8.108-7.438-1.449 3.623c-.145.363-.74.365-.885-.001l-1.449-3.62c-.073-.182-.109-.372-.109-.564 0-.836.68-1.516 1.516-1.516h.969c.835 0 1.515.68 1.515 1.516 0 .192-.036.382-.108.562zm.108-21.078c0 .956-.675 1.755-1.573 1.952l-.281-3.937c1.034.076 1.854.932 1.854 1.985zm-6.126-2.067c.034-.523.473-.933.997-.933h.267c.522 0 .96.408.998.929l.79 11.071h-.926c-.979 0-1.946.118-2.886.335zm2.126 13.067h2c.552 0 1 .449 1 1v1.041c-.332-.021-.665-.041-1-.041-5.137 0-9.704 2.444-12.634 6.219.36-1.374.979-2.679 1.834-3.819 2.067-2.755 5.356-4.4 8.8-4.4zm-42 13c0-4.962 4.037-9 9-9s9 4.038 9 9c0 3.842-2.462 7.226-6 8.479v-3.352c.296.154.613.234.931.234.695 0 1.379-.351 1.766-.982l1.029-1.74c.271-.457.345-1.014.203-1.528-.126-.46-.406-.851-.789-1.112.387-.265.664-.653.789-1.111.142-.515.067-1.072-.203-1.528l-1.037-1.754c-.546-.891-1.705-1.219-2.638-.769-.083-1.026-.958-1.837-2.022-1.837h-2.059c-1.063 0-1.938.811-2.021 1.838-.933-.45-2.093-.121-2.646.782l-1.029 1.74c-.271.457-.345 1.014-.203 1.528.126.461.407.851.789 1.112-.387.265-.664.653-.789 1.111-.142.515-.067 1.072.203 1.528l1.037 1.754c.556.906 1.745 1.223 2.689.736v3.35c-3.538-1.253-6-4.637-6-8.479zm6.345 2.632-1.321.728-1.019-1.719 2.918-1.641-2.928-1.621 1.088-1.738 2.859 1.608.029-3.249h2.087v3.25l2.918-1.61 1.019 1.719-2.918 1.641 2.928 1.621-1.082 1.741-1.264-.722c-.498-.969-1.497-1.64-2.659-1.64-1.159 0-2.155.668-2.655 1.632zm1.655 13.368v-12c0-.551.448-1 1-1s1 .449 1 1v11h6.026c-.442.584-.773 1.257-.924 2h-6.102c-.552 0-1-.449-1-1zm12 5c-1.654 0-3-1.346-3-3s1.346-3 3-3 3 1.346 3 3-1.346 3-3 3zm4.899-2c.066-.323.101-.658.101-1 0-2.757-2.243-5-5-5h-8v-2.42c4.681-1.325 8-5.646 8-10.58 0-3.72-1.861-7.008-4.695-9h15.745c-1.326 2.079-2.05 4.529-2.05 7v1.485c-.635 1.722-1 3.574-1 5.515 0 6.02 3.345 11.269 8.271 14zm19.101 0c-7.72 0-14-6.28-14-14s6.28-14 14-14c1.218 0 2.419.161 3.583.469l-.742 2.456c-.625-.569-1.447-.925-2.357-.925h-.969c-1.938 0-3.515 1.577-3.515 3.516 0 .447.084.886.251 1.306l1.449 3.62c.377.946 1.28 1.558 2.3 1.558s1.923-.612 2.3-1.557l1.449-3.624c.065-.163.107-.332.147-.501l.007.002 5.579-18.46c.191-.63.916-1.007 1.541-.798l.966.322c.605.201 1.011.765 1.011 1.402 0 .085-.008.17-.022.253l-3.664 21.07c-.268-.065-.543-.109-.83-.109-.448 0-.887.084-1.306.251l-3.621 1.449c-.946.379-1.557 1.282-1.557 2.3s.611 1.921 1.558 2.3l3.622 1.45c.418.166.856.25 1.305.25 1.938 0 3.515-1.577 3.515-3.516v-.969c0-.869-.329-1.656-.854-2.27l.791-4.547c1.336 2.186 2.063 4.709 2.063 7.302 0 7.72-6.28 14-14 14z"/><circle cx="58" cy="16" r="1"/></g></svg>