<svg id="_x33_0" enable-background="new 0 0 64 64" height="512" viewBox="0 0 64 64" width="512" xmlns="http://www.w3.org/2000/svg"><g><path d="m39.628 16.096c-.475-1.135-.222-2.427.642-3.292l1.825-1.823-7.075-7.075-1.824 1.823c-.864.865-2.156 1.118-3.344.621-1.125-.465-1.852-1.554-1.852-2.773v-2.577h-10v2.577c0 1.219-.727 2.308-1.905 2.795-1.134.475-2.427.223-3.292-.643l-1.823-1.823-7.075 7.074 1.825 1.823c.864.865 1.117 2.157.621 3.344-.467 1.125-1.556 1.853-2.774 1.853h-2.577v10h2.577c1.218 0 2.307.728 2.795 1.904.475 1.135.222 2.427-.642 3.292l-1.825 1.824 7.075 7.074 1.824-1.823c.865-.865 2.157-1.117 3.344-.621 1.125.465 1.852 1.554 1.852 2.773v15.577c0 1.405.596 2.754 1.636 3.7.922.839 2.13 1.299 3.374 1.299.158 0 .316-.007.475-.022 2.532-.24 4.515-2.501 4.515-5.148v-15.406c0-1.219.727-2.308 1.905-2.795 1.133-.476 2.426-.223 3.292.643l1.824 1.823 7.075-7.074-1.825-1.823c-.864-.865-1.117-2.157-.621-3.344.466-1.125 1.555-1.853 2.773-1.853h2.577v-10h-2.577c-1.218 0-2.307-.728-2.795-1.904zm-4.628 6.904c0 2.206-1.794 4-4 4-.338 0-.673-.045-.998-.128.775-1.395 1.12-3.006.958-4.672-.107-1.104-.446-2.142-.962-3.071.326-.084.662-.129 1.002-.129 2.206 0 4 1.794 4 4zm-6.679 5.973c.148-.132.28-.276.417-.416.715.29 1.483.443 2.262.443.995 0 1.931-.247 2.758-.677-1.201 2.434-3.213 4.418-5.758 5.581v-4.206c0-.28.117-.545.321-.725zm2.679-11.973c-.774 0-1.538.153-2.249.441-.062-.065-.128-.126-.192-.188.288-.713.441-1.478.441-2.253 0-.985-.243-1.912-.665-2.733 2.334 1.165 4.233 3.064 5.398 5.398-.821-.422-1.748-.665-2.733-.665zm-4-2c0 .34-.045.676-.129 1.002-.894-.496-1.888-.831-2.948-.95-1.678-.184-3.351.158-4.793.952-.085-.326-.13-.663-.13-1.004 0-2.206 1.794-4 4-4s4 1.794 4 4zm-16 8c0-2.206 1.794-4 4-4 .341 0 .679.045 1.006.13-.649 1.173-1.006 2.502-1.006 3.87 0 1.371.358 2.698 1.006 3.87-.327.085-.665.13-1.006.13-2.206 0-4-1.794-4-4zm6.443-5.743c-.063.061-.125.122-.186.185-.713-.289-1.48-.442-2.257-.442-.985 0-1.912.243-2.733.665 1.165-2.334 3.064-4.233 5.398-5.398-.422.821-.665 1.748-.665 2.733 0 .777.153 1.544.443 2.257zm-2.443 11.743c.777 0 1.545-.153 2.259-.443.142.146.283.293.436.429.194.171.305.431.305.712v4.206c-2.545-1.163-4.557-3.147-5.758-5.581.827.43 1.763.677 2.758.677zm11 28.829c0 1.626-1.188 3.013-2.704 3.157-.861.075-1.682-.19-2.314-.766-.624-.567-.982-1.376-.982-2.22v-28.302c0-.855-.358-1.661-.982-2.212-1.283-1.132-2.018-2.766-2.018-4.486 0-1.707.729-3.339 2-4.476 1.114-.995 2.51-1.524 3.993-1.524.234 0 .47.013.708.04 2.739.307 5.005 2.608 5.271 5.354.188 1.948-.532 3.801-1.977 5.083-.633.559-.995 1.369-.995 2.221zm17-31.829h-.577c-2.03 0-3.844 1.212-4.641 3.133-.788 1.887-.367 4.037 1.074 5.478l.41.409-4.246 4.246-.41-.409c-1.439-1.44-3.59-1.863-5.522-1.055-.397.164-.756.383-1.088.633v-2.365c5.41-2.064 9-7.221 9-13.07 0-.207-.01-.411-.031-.613-.315-7.23-6.127-13.041-13.356-13.356-.202-.021-.406-.031-.613-.031s-.411.01-.613.031c-7.23.315-13.041 6.127-13.356 13.356-.021.202-.031.406-.031.613 0 5.849 3.59 11.005 9 13.07v2.371c-.344-.259-.718-.486-1.133-.658-1.889-.788-4.037-.368-5.477 1.074l-.41.409-4.246-4.246.41-.409c1.44-1.44 1.862-3.591 1.054-5.523-.777-1.876-2.591-3.088-4.621-3.088h-.577v-6h.577c2.03 0 3.844-1.212 4.641-3.133.788-1.887.367-4.037-1.074-5.478l-.41-.409 4.246-4.246.41.409c1.439 1.44 3.589 1.861 5.522 1.055 1.876-.776 3.088-2.59 3.088-4.621v-.577h6v.577c0 2.031 1.212 3.845 3.133 4.641 1.888.786 4.037.366 5.477-1.074l.41-.409 4.246 4.246-.41.409c-1.44 1.44-1.862 3.591-1.054 5.523.777 1.875 2.591 3.087 4.621 3.087h.577z"/><path d="m50 56c0 1.654 1.346 3 3 3s3-1.346 3-3-1.346-3-3-3-3 1.346-3 3zm4 0c0 .552-.449 1-1 1s-1-.448-1-1 .449-1 1-1 1 .448 1 1z"/><path d="m59 11c0-3.309-2.691-6-6-6s-6 2.691-6 6 2.691 6 6 6 6-2.691 6-6zm-6 4c-2.206 0-4-1.794-4-4s1.794-4 4-4 4 1.794 4 4-1.794 4-4 4z"/><path d="m63 11c0-5.514-4.486-10-10-10s-10 4.486-10 10c0 3.993 2.383 7.589 6 9.161v30.1c-1.864 1.297-3 3.445-3 5.739 0 3.859 3.14 7 7 7s7-3.141 7-7c0-2.294-1.136-4.442-3-5.739v-30.1c3.617-1.572 6-5.168 6-9.161zm-7.499 40.677c1.541.886 2.499 2.543 2.499 4.323 0 2.757-2.243 5-5 5s-5-2.243-5-5c0-1.78.958-3.437 2.499-4.323l.501-.289v-32.616l-.668-.235c-3.189-1.121-5.332-4.15-5.332-7.537 0-4.411 3.589-8 8-8s8 3.589 8 8c0 3.387-2.143 6.416-5.332 7.537l-.668.235v32.615z"/><path d="m23 18.741-4.162 3.18 1.57 5.079h5.184l1.57-5.079zm1.116 6.259h-2.232l-.722-2.337 1.838-1.404 1.838 1.404z"/><circle cx="23" cy="58" r="1"/></g></svg>