<?xml version="1.0" encoding="iso-8859-1"?>
<!-- Generator: Adobe Illustrator 19.0.0, SVG Export Plug-In . SVG Version: 6.00 Build 0)  -->
<svg version="1.1" id="Capa_1" xmlns="http://www.w3.org/2000/svg" xmlns:xlink="http://www.w3.org/1999/xlink" x="0px" y="0px"
	 viewBox="0 0 512 512" style="enable-background:new 0 0 512 512;" xml:space="preserve">
<g>
	<g>
		<path d="M193.927,339.345c-7.202-6.244-16.68-4.846-17.738-4.662c-4.083,0.696-6.827,4.572-6.13,8.655
			c0.696,4.082,4.563,6.829,8.655,6.13c0.517-0.086,3.714-0.24,5.386,1.209c1.625,1.41,1.827,4.503,1.827,6.851
			c0,11.319-10.815,11.292-10.815,11.292c-0.065,0.01-6.604,0.972-11.583-3.182c-4.597-3.837-7.027-11.404-7.027-21.883
			c0-12.44,2.717-21.349,7.858-25.765c4.617-3.967,10.12-3.378,10.791-3.285c0,0,7.65,0.876,9.054,4.717
			c1.421,3.891,5.726,5.893,9.619,4.469c3.891-1.422,5.891-5.728,4.469-9.619c-3.76-10.286-14.773-13.871-20.961-14.408
			c-2.555-0.372-13.091-1.312-22.432,6.482c-8.89,7.42-13.398,20.007-13.398,37.409c0,15.286,4.178,26.523,12.416,33.399
			c6.844,5.712,14.54,6.776,19.33,6.776c1.699,0,3.033-0.134,3.832-0.241c9.545-0.293,23.34-7.262,23.841-25.756
			C201.195,347.82,197.27,342.242,193.927,339.345z"/>
	</g>
</g>
<g>
	<g>
		<path d="M247.663,368.918h-23.167v-61.789c0-4.143-3.357-7.5-7.5-7.5s-7.5,3.357-7.5,7.5v69.289c0,4.143,3.357,7.5,7.5,7.5h30.667
			c4.143,0,7.5-3.357,7.5-7.5S251.806,368.918,247.663,368.918z"/>
	</g>
</g>
<g>
	<g>
		<path d="M312.612,354.609V307.13c0-4.143-3.357-7.5-7.5-7.5s-7.5,3.357-7.5,7.5v47.133c0,0,1.471,14.458-11.192,14.458
			c-12.149,0-11.257-14.177-11.257-14.393v-47.199c0-4.143-3.357-7.5-7.5-7.5s-7.5,3.357-7.5,7.5v46.933
			c-0.156,2.498-0.397,13.729,7.052,21.851c3.27,3.565,9.317,7.816,19.552,7.816c10.425,0,16.418-4.31,19.61-7.923
			C313.317,367.943,312.864,357.343,312.612,354.609z"/>
	</g>
</g>
<g>
	<g>
		<path d="M362.996,368.918h-23.5v-19.645h16.167c4.143,0,7.5-3.357,7.5-7.5s-3.357-7.5-7.5-7.5h-16.167v-19.645h23.5
			c4.143,0,7.5-3.357,7.5-7.5s-3.357-7.5-7.5-7.5h-31c-4.143,0-7.5,3.357-7.5,7.5v69.289c0,4.143,3.357,7.5,7.5,7.5h31
			c4.143,0,7.5-3.357,7.5-7.5S367.139,368.918,362.996,368.918z"/>
	</g>
</g>
<g>
	<g>
		<path d="M340.272,163.819h-16.324v-27.543c0-14.561-10.852-26.628-24.891-28.558v-5.141c0-8.622-5.346-16.006-12.892-19.047
			l-11.07-67.318C273.525,6.667,265.673,0,255.999,0s-17.526,6.667-19.096,16.213l-11.07,67.318
			c-7.546,3.04-12.892,10.425-12.892,19.047v5.141c-14.039,1.93-24.891,13.998-24.891,28.558v3.736c0,4.143,3.357,7.5,7.5,7.5
			s7.5-3.357,7.5-7.5v-3.736c0-7.629,6.206-13.835,13.835-13.835h78.227c7.629,0,13.835,6.206,13.835,13.835v27.543h-137.22
			c-30.277,0-54.91,24.633-54.91,54.91v238.36c0,30.277,24.633,54.91,54.91,54.91h168.545c30.277,0,54.91-24.633,54.91-54.91V218.73
			C395.183,188.452,370.549,163.819,340.272,163.819z M251.704,18.646c0.541-3.291,3.184-3.646,4.295-3.646
			c1.111,0,3.754,0.355,4.295,3.646l10.424,63.393H241.28L251.704,18.646z M284.056,107.441h-56.115v-4.864
			c0-3.054,2.485-5.538,5.538-5.538h45.039c3.054,0,5.538,2.484,5.538,5.538V107.441z M380.182,457.09
			c0,22.007-17.904,39.91-39.911,39.91H171.728c-22.007,0-39.91-17.903-39.91-39.91v-40.706h248.365V457.09z M380.183,267.163
			h-31.183c-4.143,0-7.5,3.357-7.5,7.5s3.357,7.5,7.5,7.5h31.183v119.221H131.816V282.163h188.183c4.143,0,7.5-3.357,7.5-7.5
			s-3.357-7.5-7.5-7.5H131.816v-48.434c0-22.006,17.904-39.91,39.911-39.91h168.545c22.007,0,39.91,17.903,39.91,39.91V267.163z"/>
	</g>
</g>
<g>
</g>
<g>
</g>
<g>
</g>
<g>
</g>
<g>
</g>
<g>
</g>
<g>
</g>
<g>
</g>
<g>
</g>
<g>
</g>
<g>
</g>
<g>
</g>
<g>
</g>
<g>
</g>
<g>
</g>
</svg>
