<svg id="_x33_0" enable-background="new 0 0 64 64" height="512" viewBox="0 0 64 64" width="512" xmlns="http://www.w3.org/2000/svg"><g><path d="m29 34c0 1.654 1.346 3 3 3s3-1.346 3-3-1.346-3-3-3-3 1.346-3 3zm4 0c0 .551-.449 1-1 1s-1-.449-1-1 .449-1 1-1 1 .449 1 1z"/><path d="m50 23c-2.01 0-3.941.469-5.674 1.312l-5.537-5.933.965-3.379h2.246c1.654 0 3-1.346 3-3s-1.346-3-3-3h-10c-1.654 0-3 1.346-3 3s1.346 3 3 3h1.674l-.571 2h-16.103v-7c0-1.654 1.346-3 3-3h2c1.654 0 3-1.346 3-3s-1.346-3-3-3h-2c-3.438 0-6.43 1.94-7.945 4.781-1.066-1.669-2.931-2.781-5.055-2.781h-2c-1.103 0-2 .897-2 2v8c0 1.103.897 2 2 2h2c1.538 0 2.937-.586 4-1.54v9.899c-5.841 1.372-10 6.553-10 12.641 0 7.168 5.832 13 13 13 1.723 0 3.424-.344 5-1v12c0 1.654 1.346 3 3 3h20c1.654 0 3-1.346 3-3v-12c1.576.656 3.277 1 5 1 7.168 0 13-5.832 13-13s-5.832-13-13-13zm-7.443 2.348c-1.891 1.32-3.431 3.139-4.409 5.308-.527-.966-1.277-1.792-2.177-2.415l2.177-7.618zm-25.557-5.291 10.716 8.419c-.761.592-1.401 1.331-1.866 2.183-1.655-3.674-4.925-6.384-8.85-7.31zm20 13.943c0 2.566-3.147 6.532-5 8.551-1.853-2.02-5-5.985-5-8.551 0-2.757 2.243-5 5-5s5 2.243 5 5zm1.92-1h3.08c.551 0 1 .449 1 1v3h-4.726c.439-1.025.726-2.049.726-3 0-.34-.033-.672-.08-1zm4.08 10h-8.72c.907-1.049 2.031-2.465 2.958-4h5.762zm-17.92-10c-.047.328-.08.66-.08 1 0 .951.287 1.975.726 3h-4.726v-3c0-.551.449-1 1-1zm-4.08 6h5.761c.928 1.535 2.051 2.951 2.958 4h-8.719zm0 10h8v6h-8zm0-2v-2h22v2h-10v8h-2v-8zm14 2h8v6h-8zm7-18h-1.793c.874-1.711 2.171-3.136 3.734-4.169l6.942 7.438c.075.081.117.186.117.296 0 .24-.195.435-.435.435h-5.565v-1c0-1.654-1.346-3-3-3zm-11-19c0-.551.449-1 1-1h10c.551 0 1 .449 1 1s-.449 1-1 1h-10c-.551 0-1-.449-1-1zm6.674 3-3.526 12.341c-.58-.188-1.193-.295-1.827-.324l3.433-12.017zm-7.5 12.25c-.19.051-.375.111-.558.177l-10.725-8.427h13.641zm-10.174-24.25h2c.551 0 1 .449 1 1s-.449 1-1 1h-2c-2.757 0-5 2.243-5 5l.001 25h-2.001v-25c0-3.86 3.14-7 7-7zm-13 10h-2l-.001-8h.001 2c2.206 0 4 1.794 4 4s-1.794 4-4 4zm7 34c-6.065 0-11-4.935-11-11 0-4.99 3.301-9.262 8-10.58v9.58c0 1.103.897 2 2 2h2c1.103 0 2-.897 2-2v-9.57c2.943.832 5.411 2.848 6.799 5.57h-1.799c-1.654 0-3 1.346-3 3v11.775c-1.543.79-3.253 1.225-5 1.225zm28 14h-20c-.551 0-1-.449-1-1v-3h22v3c0 .551-.449 1-1 1zm8-14c-1.747 0-3.457-.435-5-1.225v-8.775h5.565c1.343 0 2.435-1.092 2.435-2.435 0-.619-.232-1.209-.655-1.661l-6.581-7.051c1.317-.55 2.751-.853 4.236-.853 6.065 0 11 4.935 11 11s-4.935 11-11 11z"/></g></svg>