<svg id="_x33_0" enable-background="new 0 0 64 64" height="512" viewBox="0 0 64 64" width="512" xmlns="http://www.w3.org/2000/svg"><g><path d="m45 11c0-2.206-1.794-4-4-4s-4 1.794-4 4c0 1.2.542 2.266 1.382 3-.84.734-1.382 1.8-1.382 3s.542 2.266 1.382 3c-.84.734-1.382 1.8-1.382 3s.542 2.266 1.382 3c-.84.734-1.382 1.8-1.382 3s.542 2.266 1.382 3c-.84.734-1.382 1.8-1.382 3 0 1.201.542 2.266 1.382 3-.84.734-1.382 1.799-1.382 3s.542 2.266 1.382 3c-.84.734-1.382 1.799-1.382 3s.542 2.266 1.382 3c-.84.734-1.382 1.799-1.382 3 0 2.206 1.794 4 4 4s4-1.794 4-4c0-1.201-.542-2.266-1.382-3 .84-.734 1.382-1.799 1.382-3s-.542-2.266-1.382-3c.84-.734 1.382-1.799 1.382-3s-.542-2.266-1.382-3c.84-.734 1.382-1.799 1.382-3 0-1.2-.542-2.266-1.382-3 .84-.734 1.382-1.8 1.382-3s-.542-2.266-1.382-3c.84-.734 1.382-1.8 1.382-3s-.542-2.266-1.382-3c.84-.734 1.382-1.8 1.382-3s-.542-2.266-1.382-3c.84-.734 1.382-1.8 1.382-3zm-2 42c0 1.103-.897 2-2 2s-2-.897-2-2 .897-2 2-2 2 .897 2 2zm0-6c0 1.103-.897 2-2 2s-2-.897-2-2 .897-2 2-2 2 .897 2 2zm0-6c0 1.103-.897 2-2 2s-2-.897-2-2 .897-2 2-2 2 .897 2 2zm0-6c0 1.103-.897 2-2 2s-2-.897-2-2 .897-2 2-2 2 .897 2 2zm0-6c0 1.103-.897 2-2 2s-2-.897-2-2 .897-2 2-2 2 .897 2 2zm0-6c0 1.103-.897 2-2 2s-2-.897-2-2 .897-2 2-2 2 .897 2 2zm0-6c0 1.103-.897 2-2 2s-2-.897-2-2 .897-2 2-2 2 .897 2 2zm-4-6c0-1.103.897-2 2-2s2 .897 2 2-.897 2-2 2-2-.897-2-2z"/><path d="m61.153 20.436c1.122-.467 1.847-1.554 1.847-2.769v-6.252c0-1.332-1.083-2.415-2.414-2.415-.645 0-1.251.251-1.707.707l-7.879 7.879v-13.586c0-1.654-1.346-3-3-3h-24c-2.757 0-5 2.243-5 5v7h-6v-10c0-1.103-.897-2-2-2h-6c-1.103 0-2 .897-2 2v10c-1.103 0-2 .897-2 2v6c0 1.103.897 2 2 2v18c-1.103 0-2 .897-2 2v6c0 1.103.897 2 2 2v10c0 1.103.897 2 2 2h6c1.103 0 2-.897 2-2v-10h6v7c0 2.757 2.243 5 5 5h24c1.654 0 3-1.346 3-3v-13.586l7.879 7.88c.45.448 1.072.706 1.707.706 1.331 0 2.414-1.083 2.414-2.414v-6.253c0-1.215-.725-2.302-1.846-2.769l-10.154-4.231v-4.553l8.546 2.138c.22.055.446.082.673.082 1.533 0 2.781-1.248 2.781-2.781v-4.438c0-1.533-1.248-2.781-2.781-2.781-.226 0-.452.028-.675.083l-8.544 2.136v-4.553zm-.86-9.315c.077-.077.184-.121.293-.121.228 0 .414.186.414.414v6.252c0 .405-.242.768-.616.923l-10.507 4.378c-.05.022-.106.033-.16.033h-.303c-.228 0-.414-.186-.414-.414 0-.109.044-.216.121-.293zm-37.293 31.879.001 6h-6.001v-6zm-10-2v-18h6v18zm4-20v-6h6l.001 6zm-12-18h6v10h-6zm-2 12h12v6h-12zm2 8h6v18h-6zm-2 20h12v6h-12zm8 18h-6v-10h6zm10-3v-7h2c1.103 0 2-.897 2-2v-6c0-1.103-.897-2-2-2h-2v-18h2c1.103 0 2-.897 2-2v-6c0-1.103-.897-2-2-2h-2v-7c0-1.654 1.346-3 3-3h7v58h-7c-1.654 0-3-1.346-3-3zm40-11.667v6.253c0 .337-.468.532-.707.293l-11.172-11.173c-.077-.076-.121-.183-.121-.292 0-.228.186-.414.414-.414h.303c.055 0 .11.011.159.031l10.508 4.379c.374.156.616.519.616.923zm-.972-17.309c.064-.016.128-.024.191-.024.431 0 .781.35.781.781v4.438c0 .495-.507.869-.97.759l-10.817-2.706c-.126-.031-.213-.143-.213-.272s.087-.241.213-.272zm-11.3.763c-1.018.255-1.728 1.165-1.728 2.213s.71 1.958 1.728 2.212l.272.068v4.762c-1.134.198-2 1.183-2 2.372 0 .637.258 1.259.707 1.707l1.293 1.293v15.586c0 .552-.449 1-1 1h-15v-58h15c.551 0 1 .449 1 1v15.586l-1.293 1.293c-.456.456-.707 1.062-.707 1.707 0 1.189.866 2.174 2 2.372v4.761z"/></g></svg>