<svg height="512pt" viewBox="0 0 512 512" width="512pt" xmlns="http://www.w3.org/2000/svg"><path d="m400.601562 0h-289.203124c-61.171876 0-111.398438 49.382812-111.398438 111.398438v289.203124c0 61.425782 49.972656 111.398438 111.398438 111.398438h144.601562c34.625 0 68.476562-14.027344 92.867188-38.472656 0 0 124.691406-124.65625 124.679687-124.644532.003906-.003906.007813-.007812.011719-.011718 24.429687-24.484375 38.441406-58.332032 38.441406-92.863282v-144.609374c0-61.425782-49.972656-111.398438-111.398438-111.398438zm-370.601562 400.601562v-289.203124c0-45.34375 36.710938-81.398438 81.398438-81.398438h289.203124c44.882813 0 81.398438 36.515625 81.398438 81.398438v144.601562c0 18.308594-14.894531 33.199219-33.199219 33.199219h-1.066406v-177.800781c0-26.578126-21.648437-47.132813-47.132813-47.132813h-289.203124c-25.484376 0-47.132813 20.558594-47.132813 47.132813v289.203124c0 26.578126 21.648437 47.132813 47.132813 47.132813h177.800781v1.082031c0 18.296875-14.890625 33.183594-33.199219 33.183594h-144.601562c-44.882813 0-81.398438-36.515625-81.398438-81.398438zm370.601562-111.402343c-61.425781 0-111.402343 49.976562-111.402343 111.402343v17.132813h-177.800781c-9.351563 0-17.132813-7.539063-17.132813-17.132813v-289.203124c0-9.578126 7.765625-17.132813 17.132813-17.132813h289.203124c4.519532 0 8.9375 1.828125 12.125 5.023437 3.230469 3.226563 5.007813 7.527344 5.007813 12.109376v177.800781zm-72.957031 163.128906c-3.019531 3.023437-6.226562 5.839844-9.59375 8.4375.746094-3.871094 1.148438-7.863281 1.148438-11.949219v-48.214844c0-44.886718 36.519531-81.402343 81.402343-81.402343h48.199219c4.089844 0 8.085938-.402344 11.964844-1.148438-2.601563 3.375-5.417969 6.597657-8.445313 9.632813zm0 0"/></svg>