<svg id="_x33_0" enable-background="new 0 0 64 64" height="512" viewBox="0 0 64 64" width="512" xmlns="http://www.w3.org/2000/svg"><path d="m60.902 34.026c-1.527-1.909-3.701-3.15-6.122-3.497l-2.81-.402c-.144-1.172-.941-2.173-2.083-2.553l-1.176-.391c-.362-.121-.742-.183-1.127-.183-.752 0-1.458.238-2.045.651l-2.555-1.277c.004-.06.016-.12.016-.181 0-1.082-.537-2.086-1.438-2.688l-1.354-.902c-1.08-.72-2.504-.744-3.639-.177l-2.623-1.968c.026-.166.054-.333.054-.504 0-.869-.353-1.721-.968-2.336l-1.584-1.584c-.531-.531-1.225-.84-1.949-.949l-.378-.378c-1.085-1.085-2.587-1.707-4.121-1.707s-3.036.622-4.121 1.707l-.693.693c-1.677 1.677-3.905 2.6-6.276 2.6-1.586 0-3.138-.644-4.26-1.765-.797-.797-1.856-1.235-2.983-1.235-2.022 0-3.667 1.645-3.667 3.667 0 .497.12.976.311 1.425-1.478 1.448-2.311 3.414-2.311 5.513v22.395c0 2.757 2.243 5 5 5h3v-3h3v3h8v-3h13v3h8v-3h2v3h8v-3h2v3h4c3.309 0 6-2.691 6-6v-6.992c0-2.165-.745-4.289-2.098-5.982zm.098 5.982v2.434c-1.695 1.017-3.62 1.558-5.605 1.558h-4.385c.05-3.101 2.148-5.824 5.15-6.643l3.867-1.055c.63 1.127.973 2.406.973 3.706zm-2.292-5.419-3.075.839c-3.87 1.056-6.579 4.571-6.628 8.572h-39.035c-2.345 0-4.669-.774-6.546-2.182l-.424-.318v-13.414c2.156.359 4.006 1.856 4.77 3.955 1.543 4.242 5.286 7.213 9.769 7.751l17.772 2.133c.414.05.838.075 1.262.075 3.374 0 6.474-1.59 8.467-4.266l.247.082c.363.122.743.184 1.129.184 1.358 0 2.58-.755 3.187-1.97l1.969-3.939 2.925.418c1.604.23 3.067.962 4.211 2.08zm-11.124-5.589c.169 0 .335.026.492.08l1.179.393c.445.148.745.563.745 1.034 0 .169-.04.337-.115.487l-2.071 4.142c-.342.685-1.172 1.029-1.892.783l-1.177-.392c-.445-.148-.745-.563-.745-1.034 0-.169.04-.337.115-.487l2.071-4.142c.267-.533.802-.864 1.398-.864zm-8.485-4.732 1.354.902c.342.228.547.611.547 1.023 0 .287-.101.566-.285.786l-3.706 4.447c-.504.607-1.449.744-2.107.306l-1.354-.902c-.343-.228-.548-.611-.548-1.023 0-.287.101-.566.285-.786l3.706-4.447c.303-.365.749-.574 1.224-.574.315 0 .621.093.884.268zm-4.054-.484-3.296 3.955c-.483.579-.749 1.314-.749 2.068 0 1.082.537 2.086 1.438 2.688l1.354.902c.592.394 1.28.603 1.993.603 1.07 0 2.077-.472 2.761-1.293l3.705-4.446c.003-.004.005-.009.009-.012l1.999.999-1.932 3.863c-.214.425-.327.904-.327 1.382 0 .964.448 1.842 1.172 2.416-1.62 1.953-4.016 3.091-6.599 3.091-.344 0-.688-.021-1.023-.062l-16.55-1.985v-5.347c0-1.499.578-2.907 1.599-3.969.42.224.892.363 1.401.363h2.248c.728 0 1.43-.264 1.976-.742l6.647-5.816c.059-.051.102-.115.157-.17zm-10.045-1.784c.552 0 1 .448 1 1s-.448 1-1 1-1-.448-1-1 .448-1 1-1zm0 4c.339 0 .66-.069.965-.173l-1.059.926c-.181.159-.415.247-.658.247h-2.248c-.552 0-1-.448-1-1v-2.093c0-.288.124-.563.341-.752l.706-.618c-.024.152-.047.305-.047.463 0 1.654 1.346 3 3 3zm6.618-6.968c.242.243.382.579.382.922 0 .376-.162.734-.445.981l-3.88 3.395c.201-.402.325-.85.325-1.33 0-1.654-1.346-3-3-3-.021 0-.04.006-.061.006l3.002-2.627c.281-.244.639-.379 1.01-.379.409 0 .794.159 1.083.448zm-24.951-2.032c.593 0 1.149.23 1.568.649 1.516 1.516 3.531 2.351 5.674 2.351 2.905 0 5.637-1.131 7.69-3.186l.693-.693c.714-.713 1.7-1.121 2.708-1.121.717 0 1.419.215 2.024.591-.137.087-.274.173-.398.282l-5.605 4.904c-2.079.807-4.262 1.223-6.493 1.223h-2.861c-2.15 0-4.281-.71-6.001-2-.417-.313-.666-.812-.666-1.333 0-.919.748-1.667 1.667-1.667zm-2.097 4.671c2.046 1.501 4.559 2.329 7.097 2.329h2.861c1.533 0 3.042-.195 4.52-.54-.022.148-.048.296-.048.447v2.093c0 .413.084.807.236 1.165-1.43 1.441-2.236 3.379-2.236 5.44v5.052c-3.378-.678-6.159-3.021-7.352-6.3-1.049-2.886-3.651-4.903-6.648-5.279v-.473c0-1.485.568-2.877 1.57-3.934zm52.43 29.329h-2v-3h-6v3h-4v-3h-6v3h-4v-3h-17v3h-4v-3h-7v3h-1c-1.654 0-3-1.346-3-3v-4.049c2.069 1.325 4.509 2.049 6.97 2.049h45.425c1.956 0 3.864-.443 5.605-1.284v2.284c0 2.206-1.794 4-4 4z"/></svg>