<svg id="_x33_0" enable-background="new 0 0 64 64" height="512" viewBox="0 0 64 64" width="512" xmlns="http://www.w3.org/2000/svg"><g><circle cx="32" cy="6" r="1"/><path d="m50.916 15.158c-.218-1.933-.875-3.793-1.916-5.441v-5.717c0-1.654-1.346-3-3-3h-28c-1.654 0-3 1.346-3 3v5.717c-1.041 1.648-1.698 3.508-1.916 5.441-1.205.39-2.084 1.509-2.084 2.842v12c0 1.302.839 2.402 2 2.816v28.184c0 1.103.897 2 2 2h12c1.103 0 2-.897 2-2v-32.117c0-2.117 1.172-4.045 3.007-5.052 1.821 1.002 2.993 2.918 2.993 5.052v32.117c0 1.103.897 2 2 2h12c1.103 0 2-.897 2-2v-28.184c1.161-.414 2-1.514 2-2.816v-12c0-1.333-.879-2.452-2.084-2.842zm.084 7.842c-2.206 0-4-1.794-4-4v-1c0-.552.449-1 1-1h2c.551 0 1 .448 1 1zm-4-19v5h-2v-6h1c.551 0 1 .448 1 1zm-20 5v-6h10v6zm-6 0v-6h4v6zm18-6h4v6h-4zm-22 1c0-.552.449-1 1-1h1v6h-2zm-4 14c0-.552.449-1 1-1h2c.551 0 1 .448 1 1v1c0 2.206-1.794 4-4 4zm1 13c-.551 0-1-.448-1-1v-5c1.538 0 2.937-.586 4-1.54v6.54c0 .552-.449 1-1 1zm1 10h12v2h-12zm0-2v-2h12v2zm0 22v-16h12v16zm12-32.117v6.117h-12v-2h1c1.654 0 3-1.346 3-3v-12c0-1.654-1.346-3-3-3h-.861c.211-1.415.7-2.771 1.438-4h12.423v9.559c0 .867.377 1.662.992 2.218-1.852 1.452-2.992 3.687-2.992 6.106zm4.684-7.375c-.409-.137-.684-.519-.684-.949v-9.559h16.423c.738 1.229 1.226 2.585 1.438 4h-.861c-1.654 0-3 1.346-3 3v12c0 1.654 1.346 3 3 3h1v2h-12v-6.117c0-3.352-2.136-6.316-5.316-7.375zm5.316 19.492h12v2h-12zm0-2v-2h12v2zm0 22v-16h12v16zm14-31c0 .552-.449 1-1 1h-2c-.551 0-1-.448-1-1v-6.54c1.063.954 2.462 1.54 4 1.54z"/></g></svg>