<svg id="_x33_0" enable-background="new 0 0 64 64" height="512" viewBox="0 0 64 64" width="512" xmlns="http://www.w3.org/2000/svg"><g><path d="m26 53c-1.654 0-3 1.346-3 3s1.346 3 3 3 3-1.346 3-3-1.346-3-3-3zm0 4c-.551 0-1-.448-1-1s.449-1 1-1 1 .448 1 1-.449 1-1 1z"/><path d="m33 45c-2.206 0-4 1.794-4 4s1.794 4 4 4 4-1.794 4-4-1.794-4-4-4zm0 6c-1.103 0-2-.897-2-2s.897-2 2-2 2 .897 2 2-.897 2-2 2z"/><path d="m18 41c-2.757 0-5 2.243-5 5s2.243 5 5 5 5-2.243 5-5-2.243-5-5-5zm0 8c-1.654 0-3-1.346-3-3s1.346-3 3-3 3 1.346 3 3-1.346 3-3 3z"/><path d="m50.943 12.688c.035-.186.057-.376.057-.567 0-1.721-1.4-3.121-3.121-3.121-.834 0-1.618.324-2.207.914l-4.758 4.758c-.114.114-.21.242-.304.371-.202-.025-.405-.043-.61-.043-1.112 0-2.152.375-3 1.013v-5.775c0-3.482-2.603-6.465-6.054-6.937l-16.682-2.274c-1.702-.245-3.264 1.131-3.264 2.846v.665c0 1.321.895 2.467 2.176 2.786l4.563 1.141c.742.186 1.261.85 1.261 1.615 0 .717-.458 1.352-1.137 1.578l-2.812.938c-1.227.409-2.051 1.552-2.051 2.845v2.244c-2.361 1.126-4 3.53-4 6.315v34c0 2.757 2.243 5 5 5h22c2.757 0 5-2.243 5-5v-33.101c2.279-.465 4-2.484 4-4.899 0-.205-.019-.407-.043-.609.129-.094.256-.19.371-.305l1.672-1.672v35.586c0 2.206 1.794 4 4 4s4-1.794 4-4v-28.929c0-4.153-1.445-8.168-4.057-11.383zm-35.943 2.753c0-.431.275-.813.684-.948l2.812-.938c1.498-.499 2.504-1.897 2.504-3.475 0-1.685-1.141-3.146-2.775-3.555l-4.564-1.142c-.39-.096-.661-.444-.661-.845v-.665c0-.52.437-.943.991-.864l16.685 2.274c2.465.337 4.324 2.467 4.324 4.954v.763h-12v2h12v4.08c-.328-.047-.66-.08-1-.08h-18c-.34 0-.672.033-1 .08zm1 3.559h18c2.757 0 5 2.243 5 5v11.72l-.43-.107c-4.689-1.174-9.805-.612-14.133 1.551l-1.007.503c-3.962-1.068-8.215-.831-12.028.695l-.402.161v-14.523c0-2.757 2.243-5 5-5zm21.446 18.423c-1.984 1.025-4.207 1.577-6.446 1.577h-.899c-1.26 0-2.513-.174-3.729-.51 3.47-1.468 7.39-1.847 11.074-1.067zm-1.446 23.577h-22c-1.654 0-3-1.346-3-3v-17.323l1.146-.459c3.489-1.397 7.392-1.598 11.008-.563l2.551.729c1.431.409 2.909.616 4.396.616h.899c2.802 0 5.577-.766 8-2.161v19.161c0 1.654-1.346 3-3 3zm4.897-38.152c-.336-2.012-1.529-3.733-3.194-4.777.56-.668 1.393-1.071 2.297-1.071.004 0 .008.001.012.001.064 1.622 1.365 2.923 2.987 2.987 0 .004.001.008.001.012 0 1.34-.889 2.464-2.103 2.848zm3.017-5.176c-.212.212-.493.328-.793.328-.618 0-1.121-.503-1.121-1.121 0-.295.12-.584.328-.793l4.758-4.758c.212-.212.493-.328.793-.328.618 0 1.121.503 1.121 1.121 0 .295-.12.584-.328.793zm9.086 35.328c0 1.103-.897 2-2 2s-2-.897-2-2v-37.586l.866-.866c2.025 2.752 3.134 6.086 3.134 9.523z"/></g></svg>