<svg id="_x33_0" enable-background="new 0 0 64 64" height="512" viewBox="0 0 64 64" width="512" xmlns="http://www.w3.org/2000/svg"><g><path d="m22 15c-9.374 0-17 7.626-17 17s7.626 17 17 17 17-7.626 17-17-7.626-17-17-17zm6 18h-4c-.552 0-1-.448-1-1s.448-1 1-1h4c.552 0 1 .448 1 1s-.448 1-1 1zm-4-4c-1.654 0-3 1.346-3 3s1.346 3 3 3h1.997c-.928 1.234-2.398 2-3.997 2-2.757 0-5-2.243-5-5s2.243-5 5-5c1.599 0 3.069.766 3.997 2zm2.183-2.597c-.925-.69-2.012-1.155-3.183-1.325v-8.028c3.383.225 6.457 1.569 8.861 3.674zm-5.183-1.323c-1.183.17-2.269.636-3.184 1.322l-5.677-5.677c2.404-2.105 5.478-3.449 8.861-3.674zm-4.598 2.736c-.686.915-1.152 2.001-1.322 3.184h-8.029c.225-3.383 1.569-6.457 3.674-8.861zm-1.322 5.184c.17 1.183.636 2.269 1.322 3.184l-5.677 5.677c-2.105-2.404-3.45-5.478-3.674-8.861zm2.736 4.598c.915.686 2.001 1.151 3.184 1.322v8.029c-3.383-.225-6.457-1.569-8.861-3.674zm5.184 1.323c1.17-.169 2.258-.634 3.183-1.325l5.678 5.678c-2.404 2.105-5.478 3.449-8.861 3.674zm4.603-2.732c.281-.375.513-.789.716-1.222 1.16-.125 2.117-.904 2.496-1.968h6.134c-.225 3.383-1.569 6.457-3.674 8.861zm3.213-5.189c-.379-1.064-1.336-1.843-2.496-1.968-.203-.433-.435-.846-.716-1.222l5.672-5.672c2.105 2.404 3.449 5.478 3.674 8.861h-6.134z"/><path d="m42 11c-3.5 0-6.941.883-9.996 2.54-2.976-1.619-6.384-2.54-10.004-2.54-11.579 0-21 9.421-21 21s9.421 21 21 21c3.62 0 7.028-.921 10.004-2.54 3.055 1.657 6.496 2.54 9.996 2.54 11.579 0 21-9.421 21-21s-9.421-21-21-21zm.79 37.96c1.572-.073 3.09-.349 4.523-.822l.3 2.014c-1.688.523-3.479.806-5.33.834zm6.431-1.593c1.401-.661 2.697-1.501 3.858-2.501l1.047 1.746c-1.381 1.148-2.928 2.1-4.597 2.824zm-7.221-.367c-1.593 0-3.145-.249-4.635-.733 3.485-3.75 5.635-8.756 5.635-14.267s-2.15-10.517-5.635-14.267c1.49-.484 3.042-.733 4.635-.733 8.271 0 15 6.729 15 15s-6.729 15-15 15zm12.866-26.079 1.746-1.047c1.148 1.381 2.1 2.928 2.824 4.597l-2.069.308c-.66-1.401-1.5-2.698-2.501-3.858zm-1.437-1.47c-1.133-1.032-2.4-1.914-3.78-2.613l1.21-1.634c1.603.849 3.067 1.921 4.358 3.174zm-5.668-3.425c-1.422-.515-2.928-.846-4.496-.962l.494-1.975c1.836.169 3.593.608 5.242 1.264zm11.175 17.238 1.975.494c-.169 1.836-.608 3.593-1.264 5.242l-1.673-1.24c.514-1.422.846-2.927.962-4.496zm.024-2.054c-.073-1.572-.349-3.09-.822-4.523l2.014-.3c.523 1.688.806 3.479.834 5.33zm-17.242-18.201-.508 2.031c-1.873.085-3.692.471-5.426 1.155-.575-.502-1.172-.978-1.799-1.416 2.412-1.122 5.049-1.73 7.733-1.77zm-38.718 18.991c0-10.477 8.523-19 19-19s19 8.523 19 19-8.523 19-19 19-19-8.523-19-19zm32.783 15.805c1.588.626 3.246 1.006 4.952 1.131l-.493 1.973c-2.172-.201-4.289-.772-6.258-1.688.628-.438 1.224-.914 1.799-1.416zm19.838-2.588-1.073-1.788c1.032-1.133 1.914-2.4 2.613-3.78l1.634 1.21c-.849 1.603-1.921 3.067-3.174 4.358z"/></g></svg>